<?xml version="1.0" encoding="UTF-8"?>
<svg id="Layer_1" data-name="Layer 1" xmlns="http://www.w3.org/2000/svg" viewBox="0 0 1417.32 566.93">
  <defs>
    <style>
      .cls-1 {
        fill: #7f264a;
      }
    </style>
  </defs>
  <path class="cls-1" d="m71.08,323.78c0,.72.48,1.44.77,2.15.67,1.66,1.69,3.35,3.5,3.43,2.27.11,2.42-2.21,2.79-3.75,5.97-24.4,19.94-44.06,36.93-61.81,15.48-16.18,31.3-32.05,47.01-48.01,28.75-29.19,57.43-58.46,86.34-87.49,24.55-24.64,35.3-54.86,36.67-88.92.22-5.48-.8-11.03-1.35-16.53-.18-1.78-.87-3.46-3.1-3.45-2.32.02-2.63,1.78-2.85,3.57-.23,1.89-.41,3.8-.77,5.67-4.66,24.4-19.67,42.29-37.18,58.49-9.14,8.46-17.93,17.24-26.45,26.32-24.87,26.52-48.97,53.78-75.26,78.93-11.62,11.12-23.38,22.05-33.98,34.17-20.64,23.59-34.7,49.84-33.11,82.32,0,4.97-.03,9.94.04,14.92Z"/>
  <path class="cls-1" d="m112.68,336.22c17.79-17.4,35.26-35.11,52.27-53.27,15.04-16.06,29.94-32.25,45.04-48.25,13-13.77,25.26-28.35,39.68-40.65,22.61-19.29,33.48-43.52,33.19-73.16.91-5.82-1.12-11.6-1.2-17.53-.02-1.59-.64-3.13-2.47-3.39-2.14-.31-2.35,1.4-2.7,2.93-4.24,18.35-15.09,32.92-27.42,46.38-21.7,23.7-43.52,47.31-65.86,70.4-24.89,25.72-48.99,52.2-74.51,77.32-8.54,8.41-17.07,17.11-22.91,27.83-9.9,18.18-12,37.62-8.6,57.76,1.79,10.62,5.18,20.77,10.73,30.08.88,1.47,1.41,4.29,3.7,3.56,2.11-.67.68-3.1.52-4.61-1-9.73-1.47-19.4-.05-29.15,2.54-17.38,7.61-33.57,20.58-46.25Z"/>
  <path class="cls-1" d="m261.14,248.82c14.89-18.09,24.12-38.42,24.1-63.52.63-4.57-.9-10.19-1.31-15.9-.15-2.12-.54-4.65-3.19-4.7-2.39-.05-2.61,2.42-2.99,4.26-2.71,13.01-8.64,24.42-17.11,34.58-15.82,18.98-33.91,35.83-50.73,53.87-26.35,28.27-56.16,53.13-81.82,82.07-22.19,25.02-33.13,53.55-25.2,87.57,4.16,17.84,14.02,28.73,30.01,31.26,1.61.26,3.82,1.07,4.67-.8.89-1.95-1.3-2.99-2.58-3.95-13.72-10.32-17.15-24.02-13.48-40.17,3.91-17.22,14.13-30.79,25.57-43.5,15.74-17.5,32.54-33.99,49.19-50.63,22.6-22.59,44.55-45.77,64.87-70.45Z"/>
  <path class="cls-1" d="m29.14,280.6c4.34,3.09,7.66-.14,10.63-2.67,4.14-4.03,7.15-8.39,7.33-14.12.2-6.21-4.55-9.14-9.96-6.17-4.77,2.62-7.53,6.95-9.62,11.79-1.74,4.05-2.43,8.28,1.61,11.16Z"/>
  <path class="cls-1" d="m56.51,251.88c3.81-1.32,6.93-3.65,9.49-6.7,4.58-5.45,5.65-11.58,2.59-14.46-3.18-2.99-8.76-1.68-14.26,3.35-2.99,2.68-5.14,5.89-6.32,9.74-.8,2.59-.51,5,1.51,6.91,2.01,1.91,4.45,2.04,6.99,1.16Z"/>
  <path class="cls-1" d="m47.34,467.37c-1.82-1.95-3.5-4.06-6.05-5.17-5.48-2.38-10.24.69-9.4,6.54,1.07,7.46,4.95,13.39,12.15,16.4,5.54,2.31,9.62-1.07,8.93-7.08-.49-4.28-2.7-7.68-5.64-10.68Z"/>
  <path class="cls-1" d="m14.39,347.78c4-4.11,6.11-15.53,3.84-20.76-2.15-4.96-6.17-5.9-10.19-2.37-5.05,4.44-7.23,15.49-4.18,21.29,2.38,4.53,7.12,5.36,10.54,1.85Z"/>
  <path class="cls-1" d="m33.59,445.1c-.8-5.07-3.07-9.45-6.68-13.11-2.13-2.16-4.62-3.51-7.69-2.33-3.31,1.28-4.25,4.24-4.22,7.39.04,5.37,2.12,10.04,5.74,14.27,2.49,2.66,5.34,5.51,9.53,3.57,4.21-1.95,3.92-6,3.33-9.8Z"/>
  <path class="cls-1" d="m21.48,413.32c.14-5.65-1.09-10.98-4.38-15-2.24-2.52-4.03-4.73-7.18-3.76-3.24,1-4.89,3.47-5.29,6.74-.67,5.47.16,10.74,3.04,15.46,1.77,2.91,3.99,5.97,8.06,4.76,3.84-1.15,5.65-4.34,5.75-8.2Z"/>
  <path class="cls-1" d="m15.88,314.43c2.78.88,4.81-.55,7.6-3.1,4.07-4.07,6.83-9.93,6.06-16.94-.66-5.99-5.69-8.15-10.38-4.52-5.95,4.62-8.26,11.02-7.66,18.4.22,2.73,1.39,5.21,4.38,6.15Z"/>
  <path class="cls-1" d="m13.45,383.41c3.95-5.03,3.79-16.81-.31-21.75-3.64-4.39-8.15-4.22-10.73.75-3.56,6.86-3.06,13.89.74,20.46,2.41,4.15,7.43,4.19,10.3.54Z"/>
  <path class="cls-1" d="m45.83,446.45c3.97-1.48,4.56-4.71,4.22-8.34-.49-5.19-2.49-9.69-6.48-13.15-2.16-1.87-4.58-2.71-7.44-1.55-2.94,1.2-3.87,3.71-4,6.46-.25,5.05,1.84,9.39,4.52,13.14,2.69,2.82,5.32,4.88,9.2,3.44Z"/>
  <path class="cls-1" d="m27.96,414.84c3.79,2.88,7.42,2.07,9.8-2.19,2.92-5.24.83-15.53-4-19.2-2.87-2.18-5.86-2.54-8.35-.32-5.16,4.93-3.46,17.15,2.55,21.71Z"/>
  <path class="cls-1" d="m87.79,496.04c2.62-2.68,2.11-5.86.51-8.91-.82-1.57-1.82-3.04-2.43-4.03-2.86-2.89-5.62-4.8-8.91-5.84-2.74-.86-5.25-.63-7.28,1.74-1.95,2.29-2.21,4.76-1.05,7.46,2.05,4.8,5.44,8.25,10.25,10.35,3.16,1.38,6.3,1.91,8.91-.77Z"/>
  <path class="cls-1" d="m23.21,382.95c2.95,2.3,5.61,1.73,8.08-.72,4.44-4.41,4.38-16.49-.19-20.83-2.58-2.45-5.47-3.37-8.51-.57-5.65,4.88-5.28,17.52.62,22.12Z"/>
  <path class="cls-1" d="m32.06,349.88c4.43-3.65,6.53-13.14,4.05-18.29-2.42-5.04-6.89-6.02-10.82-2.39-4.08,3.77-5.88,13.46-3.45,18.53,2.04,4.26,6.52,5.2,10.22,2.16Z"/>
  <path class="cls-1" d="m122.1,517.33c-.87,2.95.28,5.24,2.85,7.97,3.94,3.2,9.07,5.59,15.14,4.61,5.47-.88,7.46-6.03,4.35-10.58-2.71-3.98-11.58-7.59-16.26-6.57-2.71.59-5.18,1.53-6.08,4.58Z"/>
  <path class="cls-1" d="m58.37,473.34c5.04,2.3,8.63-.14,8.48-5.65-.11-4.32-2.06-7.91-4.93-11.47-.66-.61-1.5-1.57-2.52-2.28-3.08-2.14-6.42-3.8-9.81-.92-3.38,2.87-3.32,6.64-1.37,10.29,2.33,4.34,5.59,7.96,10.15,10.04Z"/>
  <path class="cls-1" d="m115.57,512.93c1.75-3.4-.47-6.16-2.3-8.85-3.19-2.97-6.63-5.47-11-6.42-3.33-.72-6.04.24-8.06,2.94-2.22,2.98-1.18,5.92.74,8.43,2.92,3.83,6.95,6.21,11.69,7.08,3.49.64,7.07.44,8.93-3.18Z"/>
  <path class="cls-1" d="m64.18,490.93c-2.51-.97-4.97-.95-6.9,1.21-1.85,2.06-2.1,4.41-1,6.98,1.37,3.22,3.62,5.74,6.25,7.92,5.48,4.52,10.05,5.19,12.85,2.04,2.66-3,1.64-7.15-3.01-12.27-2.24-2.64-4.96-4.64-8.19-5.88Z"/>
  <path class="cls-1" d="m59.14,438.45c3.14.94,5.5-.96,7.01-3.64,2.02-3.59.45-10.19-3.93-15.05-1.96-1.95-4.9-4.01-8.75-1.91-3.64,1.97-4.52,5.39-3.61,9.18,1.25,5.24,3.75,9.77,9.27,11.43Z"/>
  <path class="cls-1" d="m64.51,453.47c.68,1.62,1.73,3.09,1.94,3.45,1.63,1.81,2.28,2.68,3.07,3.39,2.9,2.62,6.24,3.87,9.72,1.51,3.46-2.35,3.61-5.86,2.29-9.58-.99-2.78-2.84-4.94-4.9-6.93-3.01-2.9-6.53-4.04-10.15-1.48-3.43,2.42-3.47,6.03-1.97,9.64Z"/>
  <path class="cls-1" d="m83.7,466.92c-1.88,2.27-2.17,4.9-.84,7.53.8,1.57,1.91,2.99,2.89,4.47,1.8,1.84,3.73,3.33,6.11,4.32,3.15,1.31,6.03,1.01,8.35-1.48,2.17-2.33,2.3-5.19,1.01-8.01-2.04-4.47-5.47-7.47-10.2-8.81-2.76-.78-5.39-.35-7.32,1.98Z"/>
  <path class="cls-1" d="m132.78,497.59c-3.27,2.77-3.5,6.47-.6,9.9,4.32,5.11,13.36,6.75,17.34,3.05,3.46-3.22,2.86-6.59,1.03-8.78-5.45-6.3-13.51-7.76-17.77-4.16Z"/>
  <path class="cls-1" d="m237.2,506.08c-.63-2.99-2.96-4.35-5.68-5.1-4.85-1.33-9.33-.06-13.22,2.73-2.85,2.04-3.69,5.19-2.47,8.65,1.19,3.36,3.87,4.69,7.14,4.59,4.2-.13,8.08-1.47,11.6-4.55,1.51-1.59,3.23-3.52,2.64-6.32Z"/>
  <path class="cls-1" d="m160.23,505.43c-3.3,3.01-3.09,8,.46,10.75,4.05,3.13,11.49,3.79,15.79,1.23,3.36-2,4.7-4.94,2.87-8.61-2.75-5.49-14.58-7.5-19.12-3.37Z"/>
  <path class="cls-1" d="m105.61,486c-2.31,3.45-.84,6.59,1.55,9.22,2.18,2.39,4.97,4.06,8.18,4.84,3.43.83,6.91,1.22,9.04-2.4,2.15-3.65.53-6.85-1.53-9.5-2.41-2.53-4.96-4.19-7.85-5.18-3.8-1.3-7.12-.36-9.39,3.03Z"/>
  <path class="cls-1" d="m188.46,508.51c-2.38,2.88-2.41,5.86.03,8.75,4.33,5.13,16.14,4.03,19.42-1.8,1.51-2.67,1.23-5.13-.94-7.35-4.24-4.58-14.56-4.4-18.52.39Z"/>
  <path class="cls-1" d="m155.86,524.78c-2.14,2.22-2.36,4.88,0,7.71,3.47,4.15,12.07,5.92,16.8,3.28,3.38-1.89,5.08-4.69,2.98-8.44-2.89-5.16-14.99-6.87-19.79-2.54Z"/>
  <path class="cls-1" d="m155.01,492.49c3.15-3.18,2.41-6.54-.18-9.56-4.07-4.76-10.91-5.59-14.77-1.98-3.11,2.9-3.34,6.98-.58,9.99,4.02,4.38,11.9,5.22,15.53,1.56Z"/>
  <path class="cls-1" d="m164.71,487.29c-3.23,2.82-3.69,6.87-1.14,9.98,3.45,4.21,11.57,4.91,15.51,1.34,3.05-2.76,3.14-6.72.22-9.93-3.61-3.98-10.84-4.67-14.59-1.39Z"/>
  <path class="cls-1" d="m215.15,485.63c-3.4,2.97-3.93,7.34-1.26,10.44,3.01,3.5,10.48,3.4,14.7-.19,3.44-2.93,3.98-7.4,1.24-10.39-3.28-3.58-10.51-3.51-14.68.14Z"/>
  <path class="cls-1" d="m272.43,474.85c4.13-3.66,5.02-8.41,2.23-11.78-2.84-3.43-8.69-3.2-12.96.49-4.09,3.54-5.02,8.53-2.19,11.76,3.04,3.47,8.72,3.26,12.92-.47Z"/>
  <path class="cls-1" d="m131.22,472.04c-4.33-4.9-9.78-5.98-13.54-2.71-3.34,2.91-3.36,7.24-.06,10.82,3.92,4.25,10.5,5.49,13.93,2.62,3.32-2.78,3.2-6.76-.32-10.74Z"/>
  <path class="cls-1" d="m189.08,499.55c3.31,3.44,11.53,3.36,15.27-.15,2.99-2.8,3.09-7,.22-9.97-3.54-3.67-11.26-3.66-15.16.02-2.83,2.68-2.99,7.33-.34,10.09Z"/>
  <path class="cls-1" d="m88.04,512.4c-5.04-.48-7.72,3.54-5.38,8.04,2.07,3.99,5.7,6.33,9.77,7.92,3.11,1.22,6.49,1.9,8.75-1.37,2.33-3.38.02-6.04-2.11-8.55-2.95-3.36-6.57-5.62-11.03-6.05Z"/>
  <path class="cls-1" d="m251.87,487c3.57-3.21,4.16-7.33,1.51-10.43-3.07-3.59-9.77-3.29-14.07.62-3.66,3.33-4.26,7.8-1.48,10.95,3.08,3.49,9.48,2.97,14.05-1.14Z"/>
  <path class="cls-1" d="m290.2,458.2c4.35-4,5.29-9.3,2.27-12.79-2.88-3.32-7.36-2.95-11.83.98-4.08,3.59-4.91,9.53-1.81,12.91,2.83,3.08,7.3,2.65,11.38-1.11Z"/>
  <path class="cls-1" d="m259.41,503.17c4.01-3.51,4.71-7.14,1.93-10.07-3.2-3.38-9.25-2.81-13.96,1.32-3.91,3.43-4.69,7.31-2.06,10.15,2.9,3.13,9.68,2.45,14.09-1.41Z"/>
  <path class="cls-1" d="m202.3,481.62c2.78-2.56,2.8-7.84.04-10.68-3.14-3.22-8.77-3.31-12.17-.2-3.22,2.95-3.5,7.5-.65,10.51,2.96,3.12,9.59,3.31,12.78.37Z"/>
  <path class="cls-1" d="m185.71,528.22c-2.31,2.27-1.95,5.1.94,7.65,3.77,3.32,12.89,2.64,16.38-1.09,2.25-2.4,2.14-4.74-.22-6.99-3.61-3.45-12.72-3.53-17.11.43Z"/>
  <path class="cls-1" d="m288.14,408.99c2.76,3.05,7.15,3.43,10.08.88,3.76-3.27,4.35-9.68,1.22-13.04-2.82-3.03-7.15-2.99-10.52.1-3.49,3.2-3.84,8.67-.78,12.06Z"/>
  <path class="cls-1" d="m223.17,478.2c3.2-2.87,3.46-7.46.59-10.57-2.82-3.06-8.73-3.05-12.29.03-3.18,2.74-3.37,7.36-.44,10.54,3.03,3.29,8.47,3.29,12.13,0Z"/>
  <path class="cls-1" d="m289.44,428.48c3.7-3.39,4.24-8.63,1.24-11.99-2.67-2.99-7.13-2.93-10.56.13-3.47,3.1-4.15,8.43-1.49,11.62,2.94,3.52,7.12,3.62,10.81.24Z"/>
  <path class="cls-1" d="m251.14,449.09c-4,3.42-4.5,7.19-1.43,10.72,2.97,3.41,7.76,3.62,11.56.5,3.38-2.77,3.95-7.77,1.27-11.07-2.85-3.51-7.41-3.57-11.4-.15Z"/>
  <path class="cls-1" d="m243.48,470.91c3.2-3.11,3.32-7.32.3-10.49-3.18-3.34-7.88-3.38-11.5-.11-3.47,3.14-3.87,7.87-.93,10.96,2.98,3.13,8.7,2.96,12.12-.37Z"/>
  <path class="cls-1" d="m278.01,434.18c-3.04-3.16-7.53-3.13-11.02.09-3.52,3.24-3.9,8.22-.88,11.49,3.03,3.27,7.05,3.15,10.87-.33,3.9-3.55,4.29-7.86,1.04-11.25Z"/>
  <path class="cls-1" d="m303.22,388.92c3.42-2.79,4.22-9.37,1.53-12.68-2.53-3.12-7.28-3.37-10.53-.56-3.5,3.03-3.97,8.53-1.03,12.07,2.59,3.13,7,3.64,10.03,1.17Z"/>
  <path class="cls-1" d="m304.19,438.23c3.97-3.29,5.1-9.34,2.41-12.45-2.44-2.82-6.44-2.97-9.62-.35-4.1,3.37-5.39,9.77-2.37,12.88,3.1,3.19,6.45,2.51,9.58-.08Z"/>
  <path class="cls-1" d="m115,527.38c-2.67-.39-4.98.29-6.35,2.85-1.45,2.71-.17,4.72,1.73,6.62,2.97,2.96,6.77,3.76,10.69,4.31,2.24.32,4.38.1,5.65-2.03,1.5-2.51-.12-4.37-1.8-6.39-2.65-2.64-5.88-4.78-9.93-5.37Z"/>
  <path class="cls-1" d="m271.27,480.73c-3.83,3.21-4.93,8.22-2.38,10.83,2.49,2.56,7.7,1.81,11.66-1.68,3.83-3.38,4.71-6.99,2.36-9.76-2.53-2.99-7.67-2.72-11.64.61Z"/>
  <path class="cls-1" d="m286.06,384.79c2.59-2.53,2.63-7.65.09-10.29-2.64-2.74-7.94-2.81-11.14.21-2.2,2.8-2.65,6.15-.07,9.41,2.56,3.24,8.27,3.46,11.12.67Z"/>
  <path class="cls-1" d="m213.29,525.98c-1.89,1.62-2.71,4.08-.4,6.86,2.58,3.09,10.29,2.67,14.28-.7,2.27-1.92,3.56-4.17,1.57-6.94-2.39-3.33-10.67-3.12-15.45.78Z"/>
  <path class="cls-1" d="m240.26,434.39c-3.01,2.7-3.14,7.34-.3,10.57,2.59,2.94,6.99,3.15,10.05.47,3.18-2.78,3.43-6.72.62-9.93-3.02-3.45-7.25-3.9-10.37-1.1Z"/>
  <path class="cls-1" d="m273.79,418.97c3.01-2.24,3.49-7.34,1.16-10.04-2.77-3.21-8.17-3.73-11.03-1.08-2.85,2.65-2.98,7.04-.13,10.03,2.97,3.11,6.43,3.74,10,1.09Z"/>
  <path class="cls-1" d="m275.61,356.97c-2.47,2.84-2.45,6.1.21,9.25,2.5,2.96,7.86,3.29,10.63.84,3.01-2.66,3.04-7.41.06-10.45-2.69-2.76-7.64-2.73-10.91.37Z"/>
  <path class="cls-1" d="m273.77,338.71c-3.26,2.76-3.59,6.99-.78,9.92,2.77,2.88,7.81,3.06,10.74.39,2.91-2.65,2.96-6.96.12-10.11-2.68-2.96-6.72-3.05-10.08-.21Z"/>
  <path class="cls-1" d="m282.35,392.52c-2.58-2.96-7.61-3.36-10.69-.85-3.25,2.65-3.43,6.55-.45,9.87,2.91,3.25,6.82,3.63,9.99.98,3.2-2.67,3.7-7.08,1.15-10.01Z"/>
  <path class="cls-1" d="m263.96,423.41c-2.9-3.41-7.24-3.84-10.39-1.04-2.99,2.66-3.23,6.96-.55,10.05,2.71,3.13,6.92,3.5,10.02.88,3.31-2.8,3.67-6.67.93-9.89Z"/>
  <path class="cls-1" d="m295.1,354.73c-3.05,2.72-3.29,8.11-.22,11.12,2.78,2.72,6,3.1,9.13.49,3.1-2.57,3.34-7.9.63-11.18-2.36-2.86-6.6-3.05-9.55-.42Z"/>
  <path class="cls-1" d="m267.37,321.98c-3.07,2.75-3.37,7.12-.67,10.05,2.72,2.96,7.45,3.06,10.58.06,3.05-2.93,3.31-6.22.56-9.52-2.76-3.3-7.21-3.5-10.47-.59Z"/>
  <path class="cls-1" d="m305,416.57c2.31,3.08,5.17,3.65,8.32,1.3,3.51-2.62,4.73-8.94,2.26-12.04-2.48-3.12-5.49-2.69-8.21-1.04-3.65,2.81-4.73,8.63-2.37,11.78Z"/>
  <path class="cls-1" d="m135.22,539.07c-2.12,2.06-1.5,4.15.22,6.15,3.49,4.05,11.48,5.4,14.6,2.43,2.12-2.02,1.7-4.1.48-5.58-3.7-4.23-12.49-5.73-15.3-3Z"/>
  <path class="cls-1" d="m289.71,466.24c-2.8,2.71-5.26,6.02-1.99,9.72,3.15,3.56,6.42,1.27,9.49-.91,2.48-2.86,5.05-5.85,2.36-9.84-1.91-2.84-6.35-2.35-9.86,1.03Z"/>
  <path class="cls-1" d="m258.47,307.17c-2.77,2.63-3.41,5.82-.65,9.05,2.56,2.88,6.65,3.03,9.51.18,2.91-2.9,2.85-6.18.18-9.07-2.77-3-6.18-2.87-9.04-.16Z"/>
  <path class="cls-1" d="m292.62,335.95c-3.17,2.83-2.98,6.46-.49,9.64,2.54,3.25,6.1,3.4,8.96.79,3.13-2.86,2.14-6.47.31-9.65-2.86-2.78-5.96-3.29-8.78-.78Z"/>
  <path class="cls-1" d="m237.91,520.31c-2.25,2.09-3.23,4.43-.83,6.97,2.29,2.43,9.05,1.41,12.35-1.77,2.17-2.09,3.23-4.49.83-7.01-2.35-2.47-8.92-1.4-12.35,1.81Z"/>
  <path class="cls-1" d="m318.78,397.58c3.2-3.04,3.73-8.99,1.05-11.38-2.47-2.2-5.2-2.13-7.63.15-2.66,2.49-3.02,8.28-.67,10.79,2.36,2.52,4.95,2.34,7.25.44Z"/>
  <path class="cls-1" d="m159.49,544.63c-2,1.72-2.08,3.62-.47,5.61,2.46,3.05,10.64,4,13.41,1.51,1.89-1.7,1.99-3.66.89-5.05-3.23-3.87-10.79-4.7-13.83-2.08Z"/>
  <path class="cls-1" d="m304.34,450.38c-2.67,2.73-4.75,5.98-1.91,9.42,2.54,3.08,5.55,1.33,7.89-.99,2.69-2.67,4.91-5.88,1.98-9.41-2.65-3.19-5.46-1.03-7.97.97Z"/>
  <path class="cls-1" d="m258.44,512.17c-1.64,1.77-3.61,4.26-.94,6.62,3.52,3.11,7.07.92,10.15-1.37,2.28-1.7,4.02-3.9,1.84-6.81-1.82-2.41-7.41-1.65-11.05,1.56Z"/>
  <path class="cls-1" d="m294.89,329.34c2.96-2.64,2.68-5.86.4-8.62-2.25-2.71-5.42-3.11-8.03-.57-2.73,2.66-2.24,5.79,0,8.78,2.42,2.15,5.04,2.72,7.64.4Z"/>
  <path class="cls-1" d="m314.95,368.44c-2.64,2.25-3.05,7.07-.68,9.68,1.93,2.13,4.24,2.57,6.63.68,2.79-2.21,3.15-7.53.68-10.17-2.11-2.26-4.37-1.96-6.63-.19Z"/>
  <path class="cls-1" d="m247.74,296c-2.26,2.39-2.8,5.16-.32,7.91,2.58,2.86,5.38,2.26,7.99-.07,2.71-2.43,3.16-5.27.58-7.94-2.49-2.57-5.35-2.54-8.25.1Z"/>
  <path class="cls-1" d="m315.3,434.08c-3.1,2.92-3.84,7.71-1.59,9.73,2.37,2.12,4.62,1.16,6.62-.63,2.87-2.58,3.63-7.61,1.42-9.56-2.37-2.08-4.58-.96-6.45.46Z"/>
  <polygon class="cls-1" points="408.61 269.29 408.61 197.9 436.08 197.9 436.08 183.06 364.33 183.06 364.33 197.9 391.81 197.9 391.81 269.29 408.61 269.29"/>
  <path class="cls-1" d="m473.13,215.75c-1.63-1.74-3.54-3.21-5.76-4.35-3.35-1.72-7.16-2.58-11.41-2.58-5.4,0-10.26,1.35-14.6,4.05-4.34,2.7-7.73,6.38-10.18,11.04-2.45,4.66-3.68,9.93-3.68,15.82s1.23,11.04,3.68,15.7c2.45,4.66,5.85,8.34,10.18,11.04,4.33,2.7,9.2,4.05,14.6,4.05,4.25,0,8.05-.88,11.41-2.64,2.23-1.17,4.13-2.64,5.76-4.37v5.79h15.94v-59.24h-15.94v5.7Zm-3.31,35.45c-2.78,2.99-6.42,4.48-10.92,4.48-2.94,0-5.54-.67-7.79-2.02-2.25-1.35-4.01-3.23-5.27-5.64-1.27-2.41-1.9-5.21-1.9-8.4s.63-5.87,1.9-8.28c1.27-2.41,3.02-4.29,5.27-5.64,2.25-1.35,4.85-2.02,7.79-2.02s5.66.67,7.91,2.02c2.25,1.35,4,3.23,5.27,5.64,1.27,2.41,1.9,5.17,1.9,8.28,0,4.74-1.39,8.61-4.17,11.59Z"/>
  <path class="cls-1" d="m543.16,235.31v33.98h16.07v-37.53c0-4.01-.98-7.75-2.94-11.22-1.96-3.47-4.66-6.3-8.1-8.46-3.43-2.17-7.32-3.25-11.65-3.25s-8.52.98-12.08,2.94c-1.93,1.07-3.62,2.38-5.09,3.89v-5.61h-16.07v59.24h16.07v-33.98c0-2.37.51-4.46,1.53-6.26,1.02-1.8,2.43-3.19,4.23-4.17,1.8-.98,3.84-1.47,6.13-1.47,3.51,0,6.38,1.1,8.59,3.31s3.31,5.07,3.31,8.59Z"/>
  <polygon class="cls-1" points="618.1 255.31 591.12 255.31 618.84 219.25 618.84 210.05 570.27 210.05 570.27 224.03 595.78 224.03 568.06 260.09 568.06 269.29 618.1 269.29 618.1 255.31"/>
  <path class="cls-1" d="m670.23,215.75c-1.63-1.74-3.54-3.21-5.76-4.35-3.35-1.72-7.16-2.58-11.41-2.58-5.4,0-10.26,1.35-14.6,4.05-4.34,2.7-7.73,6.38-10.18,11.04-2.45,4.66-3.68,9.93-3.68,15.82s1.23,11.04,3.68,15.7c2.45,4.66,5.85,8.34,10.18,11.04,4.33,2.7,9.2,4.05,14.6,4.05,4.25,0,8.05-.88,11.41-2.64,2.23-1.17,4.13-2.64,5.76-4.37v5.79h15.94v-59.24h-15.94v5.7Zm-3.31,35.45c-2.78,2.99-6.42,4.48-10.92,4.48-2.94,0-5.54-.67-7.79-2.02-2.25-1.35-4.01-3.23-5.27-5.64-1.27-2.41-1.9-5.21-1.9-8.4s.63-5.87,1.9-8.28c1.27-2.41,3.02-4.29,5.27-5.64,2.25-1.35,4.85-2.02,7.79-2.02s5.66.67,7.91,2.02c2.25,1.35,4,3.23,5.27,5.64,1.27,2.41,1.9,5.17,1.9,8.28,0,4.74-1.39,8.61-4.17,11.59Z"/>
  <path class="cls-1" d="m745.3,212.07c-3.43-2.17-7.32-3.25-11.65-3.25s-8.52.98-12.08,2.94c-1.93,1.07-3.62,2.38-5.09,3.89v-5.61h-16.07v59.24h16.07v-33.98c0-2.37.51-4.46,1.53-6.26,1.02-1.8,2.43-3.19,4.23-4.17,1.8-.98,3.84-1.47,6.13-1.47,3.51,0,6.38,1.1,8.59,3.31s3.31,5.07,3.31,8.59v33.98h16.07v-37.53c0-4.01-.98-7.75-2.94-11.22-1.96-3.47-4.66-6.3-8.1-8.46Z"/>
  <path class="cls-1" d="m777.43,200.48c2.7,0,4.88-.88,6.56-2.64,1.67-1.76,2.51-3.94,2.51-6.56s-.84-4.7-2.51-6.5c-1.68-1.8-3.86-2.7-6.56-2.7s-4.78.9-6.5,2.7c-1.72,1.8-2.58,3.97-2.58,6.5s.86,4.8,2.58,6.56c1.72,1.76,3.88,2.64,6.5,2.64Z"/>
  <rect class="cls-1" x="769.34" y="210.05" width="16.19" height="59.24"/>
  <path class="cls-1" d="m809.93,266.47c4.33,2.7,9.2,4.05,14.6,4.05,4.25,0,8.05-.88,11.41-2.64,2.23-1.17,4.13-2.64,5.76-4.37v5.79h15.94v-59.24h-15.94v5.7c-1.63-1.74-3.54-3.21-5.76-4.35-3.35-1.72-7.16-2.58-11.41-2.58-5.4,0-10.26,1.35-14.6,4.05-4.34,2.7-7.73,6.38-10.18,11.04-2.45,4.66-3.68,9.93-3.68,15.82s1.23,11.04,3.68,15.7c2.45,4.66,5.85,8.34,10.18,11.04Zm4.48-35.14c1.27-2.41,3.02-4.29,5.27-5.64,2.25-1.35,4.85-2.02,7.79-2.02s5.66.67,7.91,2.02c2.25,1.35,4,3.23,5.27,5.64,1.27,2.41,1.9,5.17,1.9,8.28,0,4.74-1.39,8.61-4.17,11.59-2.78,2.99-6.42,4.48-10.92,4.48-2.94,0-5.54-.67-7.79-2.02-2.25-1.35-4.01-3.23-5.27-5.64-1.27-2.41-1.9-5.21-1.9-8.4s.63-5.87,1.9-8.28Z"/>
  <path class="cls-1" d="m911.27,253.22h35.49l6.07,16.07h17.79l-34.59-86.23h-13.61l-34.71,86.23h17.42l6.15-16.07Zm17.87-46.64l12.34,32.66h-24.85l12.51-32.66Z"/>
  <path class="cls-1" d="m987.17,266.47c4.33,2.7,9.24,4.05,14.72,4.05,4.25,0,8.1-.9,11.53-2.7,2.06-1.08,3.84-2.42,5.4-3.97v5.44h15.94v-88.68h-16.07v34.6c-1.56-1.5-3.32-2.79-5.34-3.81-3.39-1.72-7.22-2.58-11.47-2.58-5.56,0-10.49,1.35-14.78,4.05-4.29,2.7-7.69,6.38-10.18,11.04-2.49,4.66-3.74,9.93-3.74,15.82s1.25,11.04,3.74,15.7c2.49,4.66,5.91,8.34,10.24,11.04Zm4.35-35.08c1.27-2.37,3.02-4.25,5.27-5.64,2.25-1.39,4.89-2.08,7.91-2.08s5.54.67,7.79,2.02c2.25,1.35,4,3.23,5.27,5.64,1.27,2.41,1.9,5.17,1.9,8.28s-.63,5.99-1.9,8.4c-1.27,2.41-3.03,4.29-5.27,5.64-2.25,1.35-4.89,2.02-7.91,2.02-2.86,0-5.44-.67-7.73-2.02-2.29-1.35-4.07-3.23-5.34-5.64-1.27-2.41-1.9-5.21-1.9-8.4s.63-5.85,1.9-8.22Z"/>
  <polygon class="cls-1" points="1074.21 247.57 1059.78 210.05 1042.12 210.05 1068.25 269.29 1079.78 269.29 1105.78 210.05 1088.73 210.05 1074.21 247.57"/>
  <path class="cls-1" d="m1147.85,255.49c-2.45,1.02-5.19,1.53-8.22,1.53-3.35,0-6.3-.72-8.83-2.15-2.54-1.43-4.48-3.47-5.83-6.13-.53-1.05-.93-2.19-1.25-3.39l43.26-.11c.33-1.39.55-2.64.67-3.74.12-1.1.18-2.19.18-3.25,0-5.64-1.25-10.69-3.74-15.15-2.5-4.46-5.93-7.97-10.3-10.55-4.38-2.58-9.42-3.86-15.15-3.86s-11.08,1.37-15.82,4.11c-4.74,2.74-8.48,6.42-11.22,11.04-2.74,4.62-4.11,9.87-4.11,15.76s1.41,11.28,4.23,15.95c2.82,4.66,6.64,8.32,11.47,10.98,4.82,2.66,10.34,3.99,16.56,3.99,4.82,0,9.3-.86,13.43-2.58,4.13-1.72,7.62-4.25,10.49-7.6l-9.44-9.44c-1.8,2.05-3.93,3.58-6.38,4.6Zm-17.54-31.28c2.37-1.43,5.15-2.15,8.34-2.15,3.02,0,5.58.63,7.67,1.9,2.08,1.27,3.68,3.09,4.78,5.46.53,1.14.95,2.42,1.26,3.82l-28.63.08c.3-1.09.65-2.15,1.13-3.11,1.27-2.58,3.09-4.58,5.46-6.01Z"/>
  <path class="cls-1" d="m1233.71,269.29v-37.53c0-4.01-.98-7.75-2.94-11.22-1.96-3.47-4.66-6.3-8.1-8.46-3.43-2.17-7.32-3.25-11.65-3.25s-8.52.98-12.08,2.94c-1.93,1.07-3.62,2.38-5.09,3.89v-5.61h-16.07v59.24h16.07v-33.98c0-2.37.51-4.46,1.53-6.26,1.02-1.8,2.43-3.19,4.23-4.17,1.8-.98,3.84-1.47,6.13-1.47,3.51,0,6.38,1.1,8.59,3.31s3.31,5.07,3.31,8.59v33.98h16.07Z"/>
  <polygon class="cls-1" points="1254.68 269.29 1270.75 269.29 1270.75 224.15 1284.61 224.15 1284.61 210.05 1270.75 210.05 1270.75 185.39 1254.68 185.39 1254.68 210.05 1240.82 210.05 1240.82 224.15 1254.68 224.15 1254.68 269.29"/>
  <path class="cls-1" d="m1301.78,200.48c2.7,0,4.88-.88,6.56-2.64,1.67-1.76,2.51-3.94,2.51-6.56s-.84-4.7-2.51-6.5c-1.68-1.8-3.86-2.7-6.56-2.7s-4.78.9-6.5,2.7c-1.72,1.8-2.58,3.97-2.58,6.5s.86,4.8,2.58,6.56c1.72,1.76,3.88,2.64,6.5,2.64Z"/>
  <rect class="cls-1" x="1293.68" y="210.05" width="16.19" height="59.24"/>
  <path class="cls-1" d="m1365.62,242.92c-1.43-2.29-3.27-4.13-5.52-5.52-2.25-1.39-4.62-2.47-7.11-3.25-2.5-.78-4.89-1.47-7.18-2.08-2.29-.61-4.15-1.33-5.58-2.15-1.43-.82-2.15-1.96-2.15-3.43,0-1.31.63-2.33,1.9-3.07,1.27-.74,3.09-1.1,5.46-1.1,2.62,0,5.05.49,7.3,1.47,2.25.98,4.27,2.58,6.07,4.78l9.69-9.69c-2.62-3.43-5.91-6.01-9.87-7.73-3.97-1.72-8.4-2.58-13.31-2.58s-8.71.78-12.14,2.33c-3.43,1.55-6.07,3.72-7.91,6.5-1.84,2.78-2.76,6.05-2.76,9.81s.71,6.52,2.15,8.77c1.43,2.25,3.29,4.01,5.58,5.27,2.29,1.27,4.68,2.29,7.18,3.07,2.49.78,4.89,1.47,7.18,2.08,2.29.61,4.15,1.37,5.58,2.27,1.43.9,2.15,2.17,2.15,3.8,0,1.47-.67,2.58-2.02,3.31-1.35.74-3.33,1.1-5.95,1.1-3.27,0-6.26-.57-8.95-1.72-2.7-1.14-5.07-2.86-7.11-5.15l-9.57,9.69c1.96,2.29,4.29,4.23,6.99,5.83,2.7,1.59,5.66,2.84,8.89,3.74,3.23.9,6.52,1.35,9.87,1.35,7.19,0,12.88-1.7,17.05-5.09,4.17-3.39,6.26-7.99,6.26-13.8,0-3.6-.72-6.54-2.15-8.83Z"/>
  <polygon class="cls-1" points="1387.27 269.29 1403.33 269.29 1403.33 224.15 1417.19 224.15 1417.19 210.05 1403.33 210.05 1403.33 185.39 1387.27 185.39 1387.27 210.05 1373.41 210.05 1373.41 224.15 1387.27 224.15 1387.27 269.29"/>
  <rect class="cls-1" x="370.44" y="322.73" width="9.93" height="73.3"/>
  <path class="cls-1" d="m431.54,347.66c-2.92-1.9-6.28-2.85-10.09-2.85s-7.22.86-10.25,2.59c-2.28,1.3-4.18,2.95-5.7,4.95v-6.48h-9.51v50.17h9.51v-29.26c0-2.54.56-4.79,1.69-6.76,1.13-1.97,2.68-3.52,4.65-4.65,1.97-1.13,4.22-1.69,6.76-1.69,3.8,0,6.9,1.23,9.29,3.7,2.39,2.47,3.59,5.6,3.59,9.4v29.26h9.51v-31.16c0-3.45-.85-6.71-2.54-9.77-1.69-3.06-4-5.54-6.92-7.45Z"/>
  <path class="cls-1" d="m463.64,354.89c1.44-.95,3.54-1.43,6.28-1.43,2.6,0,4.95.49,7.02,1.48,2.08.99,3.82,2.39,5.23,4.22l6.13-6.13c-1.97-2.75-4.49-4.81-7.55-6.18-3.06-1.37-6.57-2.06-10.51-2.06-3.73,0-6.92.6-9.56,1.8-2.64,1.2-4.7,2.9-6.18,5.12-1.48,2.22-2.22,4.84-2.22,7.87s.65,5.46,1.95,7.29c1.3,1.83,2.97,3.27,5.02,4.33,2.04,1.06,4.21,1.92,6.5,2.59,2.29.67,4.45,1.34,6.5,2.01,2.04.67,3.71,1.51,5.02,2.53,1.3,1.02,1.95,2.45,1.95,4.28s-.81,3.26-2.43,4.28c-1.62,1.02-3.91,1.53-6.87,1.53s-5.63-.54-8.03-1.64c-2.39-1.09-4.51-2.76-6.34-5.02l-6.13,6.13c1.55,1.9,3.38,3.54,5.49,4.91,2.11,1.37,4.42,2.43,6.92,3.17,2.5.74,5.16,1.11,7.97,1.11,5.63,0,10.12-1.37,13.47-4.12,3.34-2.75,5.02-6.48,5.02-11.2,0-3.1-.65-5.6-1.95-7.5-1.3-1.9-2.98-3.41-5.02-4.54-2.04-1.13-4.19-2.02-6.44-2.69-2.25-.67-4.42-1.32-6.5-1.95-2.08-.63-3.75-1.41-5.02-2.32-1.27-.91-1.9-2.22-1.9-3.91s.72-3.01,2.17-3.96Z"/>
  <polygon class="cls-1" points="516.19 324.85 506.68 324.85 506.68 345.86 494.32 345.86 494.32 354.52 506.68 354.52 506.68 396.03 516.19 396.03 516.19 354.52 528.54 354.52 528.54 345.86 516.19 345.86 516.19 324.85"/>
  <path class="cls-1" d="m542.7,323.68c-1.76,0-3.21.58-4.33,1.74-1.13,1.16-1.69,2.59-1.69,4.28s.56,3.22,1.69,4.38c1.13,1.16,2.57,1.74,4.33,1.74s3.2-.58,4.33-1.74c1.13-1.16,1.69-2.62,1.69-4.38s-.56-3.12-1.69-4.28c-1.13-1.16-2.57-1.74-4.33-1.74Z"/>
  <rect class="cls-1" x="537.94" y="345.86" width="9.51" height="50.17"/>
  <polygon class="cls-1" points="578.71 324.85 569.21 324.85 569.21 345.86 556.85 345.86 556.85 354.52 569.21 354.52 569.21 396.03 578.71 396.03 578.71 354.52 591.07 354.52 591.07 345.86 578.71 345.86 578.71 324.85"/>
  <path class="cls-1" d="m632.58,374.59c0,4.16-1.06,7.41-3.17,9.77-2.11,2.36-5.04,3.54-8.77,3.54-2.47,0-4.61-.53-6.44-1.58-1.83-1.06-3.22-2.59-4.17-4.59-.95-2.01-1.43-4.38-1.43-7.13v-28.73h-9.51v29.15c0,4.37.91,8.2,2.75,11.51,1.83,3.31,4.38,5.9,7.66,7.76s6.99,2.8,11.14,2.8,7.94-.93,11.14-2.8c3.2-1.86,5.72-4.45,7.55-7.76,1.83-3.31,2.75-7.15,2.75-11.51v-29.15h-9.51v28.73Z"/>
  <polygon class="cls-1" points="672.08 324.85 662.57 324.85 662.57 345.86 650.22 345.86 650.22 354.52 662.57 354.52 662.57 396.03 672.08 396.03 672.08 354.52 684.44 354.52 684.44 345.86 672.08 345.86 672.08 324.85"/>
  <path class="cls-1" d="m727.06,347.98c-3.56-2.11-7.66-3.17-12.3-3.17s-9.24,1.15-13.15,3.43c-3.91,2.29-7.01,5.41-9.29,9.35-2.29,3.94-3.43,8.38-3.43,13.31s1.16,9.47,3.49,13.41c2.32,3.94,5.49,7.06,9.51,9.35,4.01,2.29,8.52,3.43,13.52,3.43,3.94,0,7.66-.74,11.14-2.22,3.49-1.48,6.43-3.63,8.82-6.44l-6.13-6.23c-1.69,1.97-3.72,3.45-6.07,4.44-2.36.99-4.95,1.48-7.76,1.48-3.38,0-6.37-.72-8.98-2.17-2.61-1.44-4.61-3.49-6.02-6.13-.86-1.61-1.42-3.4-1.76-5.33h39.25c.21-1.06.35-1.99.42-2.8.07-.81.11-1.57.11-2.27,0-4.72-1-8.94-3.01-12.67-2.01-3.73-4.79-6.65-8.34-8.77Zm-21.07,7.71c2.46-1.41,5.32-2.11,8.55-2.11s5.74.65,7.92,1.95c2.18,1.3,3.87,3.13,5.07,5.49.81,1.61,1.33,3.47,1.59,5.54h-30.48c.32-1.81.85-3.47,1.64-4.96,1.34-2.53,3.24-4.51,5.7-5.91Z"/>
  <path class="cls-1" d="m806.9,348.24c-3.98-2.29-8.4-3.43-13.26-3.43s-9.37,1.16-13.31,3.49c-3.94,2.32-7.08,5.44-9.4,9.35s-3.49,8.29-3.49,13.15,1.16,9.38,3.49,13.36c2.32,3.98,5.46,7.13,9.4,9.45,3.94,2.32,8.38,3.49,13.31,3.49s9.28-1.16,13.26-3.49c3.98-2.32,7.13-5.47,9.45-9.45,2.32-3.98,3.49-8.43,3.49-13.36s-1.16-9.26-3.49-13.2c-2.32-3.94-5.48-7.06-9.45-9.35Zm1,31.37c-1.41,2.57-3.34,4.59-5.81,6.07-2.47,1.48-5.28,2.22-8.45,2.22s-5.99-.74-8.45-2.22c-2.47-1.48-4.4-3.5-5.81-6.07-1.41-2.57-2.11-5.51-2.11-8.82s.7-6.13,2.11-8.66c1.41-2.53,3.34-4.52,5.81-5.97,2.46-1.44,5.28-2.17,8.45-2.17s5.97.72,8.4,2.17c2.43,1.44,4.36,3.43,5.81,5.97,1.44,2.53,2.17,5.42,2.17,8.66s-.7,6.25-2.11,8.82Z"/>
  <path class="cls-1" d="m855.22,319.56c-3.8,0-7.13.81-9.98,2.43-2.85,1.62-5.09,3.82-6.71,6.6-1.62,2.78-2.43,6.04-2.43,9.77v7.5h-12.36v8.66h12.36v41.51h9.51v-41.51h15.95v-8.66h-15.95v-7.5c0-3.1.83-5.53,2.48-7.29,1.65-1.76,4-2.64,7.02-2.64,1.62,0,2.99.26,4.12.79,1.13.53,2.15,1.29,3.06,2.27l6.23-6.13c-1.76-1.9-3.7-3.34-5.81-4.33-2.11-.99-4.61-1.48-7.5-1.48Z"/>
  <polygon class="cls-1" points="947.22 331.82 947.22 322.73 887.54 322.73 887.54 331.82 912.47 331.82 912.47 396.03 922.4 396.03 922.4 331.82 947.22 331.82"/>
  <path class="cls-1" d="m978.43,347.98c-3.56-2.11-7.66-3.17-12.3-3.17s-9.24,1.15-13.15,3.43c-3.91,2.29-7.01,5.41-9.29,9.35-2.29,3.94-3.43,8.38-3.43,13.31s1.16,9.47,3.49,13.41c2.32,3.94,5.49,7.06,9.51,9.35,4.01,2.29,8.52,3.43,13.52,3.43,3.94,0,7.66-.74,11.14-2.22,3.49-1.48,6.43-3.63,8.82-6.44l-6.13-6.23c-1.69,1.97-3.72,3.45-6.07,4.44-2.36.99-4.95,1.48-7.76,1.48-3.38,0-6.37-.72-8.98-2.17-2.61-1.44-4.61-3.49-6.02-6.13-.86-1.61-1.42-3.4-1.76-5.33h39.25c.21-1.06.35-1.99.42-2.8.07-.81.11-1.57.11-2.27,0-4.72-1-8.94-3.01-12.67-2.01-3.73-4.79-6.65-8.34-8.77Zm-21.07,7.71c2.46-1.41,5.32-2.11,8.55-2.11s5.74.65,7.92,1.95c2.18,1.3,3.87,3.13,5.07,5.49.81,1.61,1.33,3.47,1.59,5.54h-30.48c.32-1.81.85-3.47,1.64-4.96,1.34-2.53,3.24-4.51,5.7-5.91Z"/>
  <path class="cls-1" d="m1014.6,356.16c2.46-1.44,5.28-2.17,8.45-2.17,2.68,0,5.12.48,7.34,1.43,2.22.95,4.1,2.34,5.65,4.17l6.34-6.34c-2.39-2.75-5.25-4.84-8.56-6.28-3.31-1.44-6.9-2.17-10.77-2.17-4.93,0-9.38,1.15-13.36,3.43-3.98,2.29-7.11,5.41-9.4,9.35-2.29,3.94-3.43,8.38-3.43,13.31s1.14,9.28,3.43,13.26c2.29,3.98,5.42,7.13,9.4,9.45,3.98,2.32,8.43,3.49,13.36,3.49,3.87,0,7.48-.74,10.83-2.22,3.34-1.48,6.18-3.56,8.5-6.23l-6.23-6.34c-1.62,1.83-3.54,3.22-5.76,4.17-2.22.95-4.66,1.43-7.34,1.43-3.17,0-5.99-.74-8.45-2.22-2.47-1.48-4.4-3.49-5.81-6.02-1.41-2.54-2.11-5.46-2.11-8.77s.7-6.23,2.11-8.77c1.41-2.53,3.34-4.52,5.81-5.97Z"/>
  <path class="cls-1" d="m1087.32,347.34c-2.92-1.69-6.28-2.53-10.09-2.53s-7.22.86-10.25,2.59c-2.28,1.3-4.18,2.95-5.7,4.95v-31.73h-9.51v75.41h9.51v-29.26c0-2.54.56-4.79,1.69-6.76,1.13-1.97,2.68-3.52,4.65-4.65,1.97-1.13,4.22-1.69,6.76-1.69,3.8,0,6.9,1.23,9.29,3.7,2.39,2.47,3.59,5.6,3.59,9.4v29.26h9.51v-31.16c0-3.94-.85-7.43-2.54-10.46-1.69-3.03-4-5.39-6.92-7.08Z"/>
  <path class="cls-1" d="m1145.2,347.66c-2.92-1.9-6.28-2.85-10.09-2.85s-7.22.86-10.25,2.59c-2.28,1.3-4.18,2.95-5.7,4.95v-6.48h-9.51v50.17h9.51v-29.26c0-2.54.56-4.79,1.69-6.76,1.13-1.97,2.68-3.52,4.65-4.65,1.97-1.13,4.22-1.69,6.76-1.69,3.8,0,6.9,1.23,9.29,3.7,2.39,2.47,3.59,5.6,3.59,9.4v29.26h9.51v-31.16c0-3.45-.85-6.71-2.54-9.77-1.69-3.06-4-5.54-6.92-7.45Z"/>
  <path class="cls-1" d="m1203.71,348.24c-3.98-2.29-8.4-3.43-13.26-3.43s-9.37,1.16-13.31,3.49c-3.94,2.32-7.08,5.44-9.4,9.35s-3.49,8.29-3.49,13.15,1.16,9.38,3.49,13.36c2.32,3.98,5.46,7.13,9.4,9.45,3.94,2.32,8.38,3.49,13.31,3.49s9.28-1.16,13.26-3.49c3.98-2.32,7.13-5.47,9.45-9.45,2.32-3.98,3.49-8.43,3.49-13.36s-1.16-9.26-3.49-13.2c-2.32-3.94-5.48-7.06-9.45-9.35Zm1,31.37c-1.41,2.57-3.34,4.59-5.81,6.07-2.47,1.48-5.28,2.22-8.45,2.22s-5.99-.74-8.45-2.22c-2.47-1.48-4.4-3.5-5.81-6.07-1.41-2.57-2.11-5.51-2.11-8.82s.7-6.13,2.11-8.66c1.41-2.53,3.34-4.52,5.81-5.97,2.46-1.44,5.28-2.17,8.45-2.17s5.97.72,8.4,2.17c2.43,1.44,4.36,3.43,5.81,5.97,1.44,2.53,2.17,5.42,2.17,8.66s-.7,6.25-2.11,8.82Z"/>
  <rect class="cls-1" x="1227.32" y="320.62" width="9.51" height="75.41"/>
  <path class="cls-1" d="m1286.94,348.24c-3.98-2.29-8.4-3.43-13.26-3.43s-9.37,1.16-13.31,3.49c-3.94,2.32-7.08,5.44-9.4,9.35s-3.49,8.29-3.49,13.15,1.16,9.38,3.49,13.36c2.32,3.98,5.46,7.13,9.4,9.45,3.94,2.32,8.38,3.49,13.31,3.49s9.28-1.16,13.26-3.49c3.98-2.32,7.13-5.47,9.45-9.45,2.32-3.98,3.49-8.43,3.49-13.36s-1.16-9.26-3.49-13.2c-2.32-3.94-5.48-7.06-9.45-9.35Zm1,31.37c-1.41,2.57-3.34,4.59-5.81,6.07-2.47,1.48-5.28,2.22-8.45,2.22s-5.99-.74-8.45-2.22c-2.47-1.48-4.4-3.5-5.81-6.07-1.41-2.57-2.11-5.51-2.11-8.82s.7-6.13,2.11-8.66c1.41-2.53,3.34-4.52,5.81-5.97,2.46-1.44,5.28-2.17,8.45-2.17s5.97.72,8.4,2.17c2.43,1.44,4.36,3.43,5.81,5.97,1.44,2.53,2.17,5.42,2.17,8.66s-.7,6.25-2.11,8.82Z"/>
  <path class="cls-1" d="m1348.25,352.56c-1.7-2.26-3.83-4.09-6.44-5.43-3.03-1.55-6.51-2.32-10.46-2.32-4.58,0-8.68,1.11-12.3,3.33-3.63,2.22-6.5,5.21-8.61,8.98-2.11,3.77-3.17,8.05-3.17,12.83s1.06,9.1,3.17,12.94c2.11,3.84,4.98,6.85,8.61,9.03,3.63,2.18,7.73,3.27,12.3,3.27,3.87,0,7.32-.77,10.35-2.32,2.67-1.37,4.84-3.24,6.55-5.57v6.73c0,4.58-1.5,8.22-4.49,10.93-2.99,2.71-7.06,4.07-12.2,4.07-3.87,0-7.22-.69-10.03-2.06-2.82-1.37-5.25-3.36-7.29-5.97l-6.13,6.23c2.39,3.45,5.58,6.13,9.56,8.03,3.98,1.9,8.54,2.85,13.68,2.85s9.8-1.02,13.78-3.06c3.98-2.04,7.08-4.86,9.29-8.45,2.22-3.59,3.33-7.78,3.33-12.57v-48.16h-9.51v6.7Zm-6.81,31.64c-2.36,1.34-5.09,2.01-8.19,2.01s-5.97-.69-8.4-2.06-4.33-3.29-5.7-5.76c-1.37-2.46-2.06-5.28-2.06-8.45s.69-5.97,2.06-8.4,3.26-4.33,5.65-5.7c2.39-1.37,5.18-2.06,8.34-2.06s5.91.69,8.24,2.06c2.32,1.37,4.14,3.27,5.44,5.7,1.3,2.43,1.95,5.26,1.95,8.5s-.63,6.07-1.9,8.5c-1.27,2.43-3.08,4.31-5.44,5.65Z"/>
  <polygon class="cls-1" points="1406.76 345.86 1391.49 381.44 1376.98 345.86 1366.41 345.86 1386.15 391.75 1373.81 417.05 1384.37 417.05 1393.88 396.46 1417.32 345.86 1406.76 345.86"/>
</svg>