<?xml version="1.0" encoding="UTF-8"?>
<svg id="Layer_1" data-name="Layer 1" xmlns="http://www.w3.org/2000/svg" viewBox="0 0 1417.32 1417.32">
  <defs>
    <style>
      .cls-1 {
        fill: #fff;
      }
    </style>
  </defs>
  <g>
    <path class="cls-1" d="m575.68,771.31c9.51-38.87,31.76-70.2,58.83-98.48,24.67-25.78,49.86-51.06,74.9-76.48,45.81-46.51,91.49-93.14,137.56-139.38,39.11-39.26,56.23-87.4,58.42-141.67.35-8.74-1.27-17.57-2.15-26.34-.29-2.84-1.39-5.52-4.94-5.5-3.69.03-4.2,2.84-4.55,5.69-.37,3.02-.66,6.05-1.23,9.03-7.43,38.87-31.33,67.38-59.23,93.18-14.57,13.48-28.57,27.47-42.14,41.93-39.62,42.25-78.02,85.69-119.9,125.75-18.51,17.71-37.25,35.13-54.13,54.43-32.88,37.58-55.29,79.41-52.76,131.14,0,7.92-.05,15.84.06,23.76.02,1.15.77,2.29,1.22,3.42,1.07,2.65,2.69,5.33,5.58,5.47,3.62.17,3.85-3.53,4.45-5.97Z"/>
    <path class="cls-1" d="m597.92,861.9c4.04-27.69,12.13-53.48,32.79-73.69,28.34-27.72,56.17-55.94,83.28-84.87,23.97-25.58,47.7-51.38,71.76-76.87,20.72-21.94,40.25-45.17,63.22-64.77,36.02-30.74,53.34-69.34,52.88-116.56,1.45-9.28-1.79-18.48-1.92-27.92-.03-2.53-1.02-4.98-3.94-5.4-3.41-.49-3.74,2.24-4.3,4.66-6.76,29.23-24.04,52.44-43.68,73.9-34.57,37.76-69.33,75.37-104.93,112.17-39.65,40.98-78.04,83.16-118.71,123.19-13.61,13.4-27.2,27.26-36.5,44.34-15.77,28.96-19.11,59.93-13.71,92.02,2.85,16.92,8.25,33.09,17.09,47.92,1.4,2.35,2.25,6.83,5.9,5.67,3.36-1.07,1.08-4.94.83-7.34-1.59-15.49-2.35-30.91-.08-46.45Z"/>
    <path class="cls-1" d="m903.53,522.46c-.25-3.37-.86-7.4-5.09-7.48-3.8-.07-4.15,3.85-4.76,6.79-4.31,20.73-13.76,38.91-27.26,55.09-25.21,30.23-54.02,57.08-80.82,85.83-41.99,45.03-89.48,84.65-130.35,130.75-35.35,39.87-52.79,85.32-40.14,139.51,6.63,28.43,22.33,45.77,47.81,49.8,2.57.41,6.09,1.71,7.44-1.28,1.41-3.11-2.07-4.76-4.11-6.29-21.86-16.44-27.32-38.27-21.48-63.99,6.23-27.44,22.52-49.06,40.74-69.31,25.08-27.88,51.84-54.16,78.36-80.66,36.01-35.98,70.98-72.92,103.35-112.24,23.72-28.82,38.42-61.21,38.39-101.19,1.01-7.28-1.43-16.24-2.09-25.33Z"/>
  </g>
  <g>
    <path class="cls-1" d="m514.54,695.34c-4.74,4.03-10.03,9.17-16.94,4.25-6.44-4.59-5.34-11.32-2.57-17.78,3.32-7.72,7.71-14.61,15.32-18.79,8.61-4.73,16.19-.07,15.87,9.82-.3,9.13-5.09,16.07-11.68,22.49Z"/>
    <path class="cls-1" d="m537.75,625.46c8.76-8,17.65-10.09,22.72-5.33,4.87,4.58,3.17,14.36-4.12,23.03-4.09,4.86-9.06,8.57-15.13,10.67-4.04,1.4-7.93,1.2-11.14-1.85-3.2-3.04-3.67-6.88-2.4-11.01,1.88-6.13,5.31-11.26,10.07-15.52Z"/>
    <path class="cls-1" d="m526.61,997.17c4.68,4.79,8.2,10.19,8.98,17.02,1.1,9.58-5.41,14.96-14.23,11.28-11.48-4.79-17.65-14.23-19.36-26.12-1.34-9.31,6.25-14.2,14.98-10.41,4.05,1.76,6.74,5.13,9.63,8.23Z"/>
    <path class="cls-1" d="m463.99,769.77c6.4-5.62,12.8-4.13,16.24,3.78,3.62,8.34.26,26.54-6.11,33.08-5.45,5.6-13,4.27-16.79-2.95-4.85-9.24-1.39-26.85,6.66-33.92Z"/>
    <path class="cls-1" d="m484.23,971.6c-5.77-6.74-9.07-14.18-9.14-22.74-.04-5.02,1.44-9.74,6.72-11.78,4.88-1.88,8.85.28,12.25,3.72,5.75,5.83,9.38,12.81,10.64,20.89.95,6.06,1.4,12.51-5.3,15.61-6.67,3.09-11.21-1.45-15.18-5.69Z"/>
    <path class="cls-1" d="m478.42,887.16c5.25,6.39,7.2,14.89,6.98,23.89-.15,6.16-3.04,11.24-9.15,13.07-6.49,1.94-10.02-2.94-12.85-7.58-4.59-7.53-5.92-15.92-4.85-24.64.64-5.21,3.26-9.15,8.43-10.74,5.03-1.55,7.88,1.98,11.44,5.99Z"/>
    <path class="cls-1" d="m488.59,748.57c-4.46,4.06-7.68,6.33-12.11,4.93-4.76-1.5-6.63-5.45-6.98-9.8-.94-11.76,2.73-21.96,12.21-29.31,7.47-5.79,15.48-2.35,16.53,7.2,1.23,11.16-3.17,20.5-9.66,26.98Z"/>
    <path class="cls-1" d="m472.12,828.74c6.52,7.87,6.79,26.63.49,34.65-4.57,5.82-12.57,5.75-16.4-.86-6.07-10.46-6.86-21.66-1.19-32.59,4.11-7.91,11.29-8.2,17.1-1.2Z"/>
    <path class="cls-1" d="m509.55,958.36c-4.27-5.97-7.59-12.89-7.2-20.94.21-4.38,1.7-8.38,6.38-10.29,4.56-1.86,8.42-.52,11.86,2.47,6.35,5.52,9.54,12.69,10.32,20.95.55,5.77-.4,10.93-6.72,13.28-6.18,2.3-10.37-.97-14.65-5.47Z"/>
    <path class="cls-1" d="m491.67,878.87c3.97-3.54,8.74-2.97,13.3.5,7.7,5.85,11.02,22.25,6.37,30.6-3.78,6.78-9.57,8.08-15.61,3.49-9.58-7.28-12.28-26.74-4.06-34.59Z"/>
    <path class="cls-1" d="m587.99,1022.21c.96,1.59,2.56,3.93,3.86,6.43,2.54,4.86,3.36,9.92-.82,14.2-4.17,4.27-9.17,3.42-14.2,1.23-7.66-3.35-13.05-8.85-16.32-16.5-1.84-4.29-1.43-8.24,1.68-11.89,3.22-3.78,7.22-4.14,11.6-2.77,5.25,1.65,9.65,4.69,14.2,9.3Z"/>
    <path class="cls-1" d="m487.17,827.43c4.84-4.47,9.44-3.01,13.56.9,7.27,6.9,7.36,26.15.29,33.18-3.93,3.9-8.16,4.82-12.87,1.15-9.39-7.32-9.98-27.47-.99-35.24Z"/>
    <path class="cls-1" d="m491.47,777.02c6.26-5.79,13.37-4.21,17.23,3.81,3.95,8.21.6,23.34-6.45,29.15-5.89,4.85-13.03,3.34-16.28-3.44-3.87-8.08-1-23.51,5.5-29.52Z"/>
    <path class="cls-1" d="m650.25,1089.45c-4.09-4.34-5.93-8-4.54-12.69,1.44-4.86,5.37-6.35,9.69-7.29,7.44-1.61,21.58,4.13,25.9,10.47,4.94,7.25,1.78,15.45-6.93,16.85-9.67,1.56-17.85-2.25-24.12-7.35Z"/>
    <path class="cls-1" d="m549.84,979.39c4.59,5.67,7.68,11.4,7.86,18.28.23,8.77-5.48,12.66-13.52,9-7.27-3.31-12.45-9.07-16.16-15.99-3.12-5.8-3.21-11.81,2.18-16.39,5.4-4.59,10.73-1.95,15.63,1.47,1.62,1.13,2.96,2.67,4.01,3.63Z"/>
    <path class="cls-1" d="m631.64,1055.65c2.92,4.29,6.46,8.67,3.67,14.09-2.97,5.76-8.68,6.08-14.23,5.07-7.55-1.38-13.96-5.18-18.62-11.28-3.06-4-4.72-8.67-1.18-13.42,3.22-4.32,7.55-5.84,12.85-4.69,6.96,1.51,12.44,5.5,17.52,10.23Z"/>
    <path class="cls-1" d="m566.48,1044.06c7.41,8.15,9.03,14.77,4.79,19.54-4.46,5.03-11.75,3.96-20.47-3.25-4.2-3.46-7.78-7.48-9.96-12.61-1.74-4.1-1.34-7.84,1.6-11.12,3.09-3.44,6.99-3.47,11-1.93,5.15,1.98,9.48,5.16,13.04,9.37Z"/>
    <path class="cls-1" d="m550.33,921.3c6.97,7.75,9.48,18.26,6.26,23.98-2.41,4.27-6.17,7.3-11.17,5.8-8.8-2.64-12.78-9.86-14.78-18.21-1.44-6.04-.04-11.48,5.76-14.62,6.14-3.33,10.81-.06,13.94,3.05Z"/>
    <path class="cls-1" d="m557.05,980.52c-.33-.58-2.01-2.92-3.09-5.5-2.39-5.74-2.32-11.5,3.14-15.35,5.76-4.07,11.38-2.26,16.17,2.36,3.29,3.17,6.23,6.6,7.81,11.04,2.1,5.93,1.87,11.52-3.65,15.26-5.55,3.77-10.87,1.78-15.49-2.4-1.26-1.14-2.3-2.52-4.89-5.4Z"/>
    <path class="cls-1" d="m587.79,1015.55c-1.55-2.37-3.33-4.62-4.6-7.13-2.12-4.19-1.66-8.37,1.34-11.99,3.07-3.7,7.26-4.39,11.66-3.15,7.54,2.13,13,6.92,16.25,14.03,2.05,4.49,1.85,9.06-1.6,12.76-3.7,3.96-8.29,4.44-13.31,2.36-3.79-1.57-6.88-3.96-9.74-6.88Z"/>
    <path class="cls-1" d="m691.03,1051.94c2.93,3.49,3.87,8.87-1.64,13.99-6.35,5.9-20.74,3.29-27.63-4.85-4.62-5.46-4.26-11.36.96-15.76,6.79-5.74,19.62-3.42,28.31,6.62Z"/>
    <path class="cls-1" d="m824.88,1068.89c-5.61,4.9-11.78,7.05-18.47,7.25-5.21.16-9.48-1.97-11.38-7.31-1.95-5.51-.6-10.53,3.94-13.78,6.2-4.44,13.34-6.47,21.07-4.35,4.33,1.19,8.04,3.37,9.04,8.12.94,4.45-1.8,7.53-4.2,10.06Z"/>
    <path class="cls-1" d="m706.46,1057.8c7.22-6.58,26.08-3.38,30.46,5.37,2.92,5.85.79,10.54-4.57,13.72-6.85,4.07-18.7,3.02-25.15-1.97-5.66-4.37-6-12.33-.74-17.12Z"/>
    <path class="cls-1" d="m646.91,1030.25c3.29,4.23,5.86,9.33,2.44,15.14-3.39,5.77-8.93,5.15-14.4,3.83-5.12-1.23-9.57-3.9-13.04-7.71-3.81-4.18-6.15-9.19-2.47-14.68,3.62-5.41,8.92-6.9,14.97-4.83,4.6,1.58,8.68,4.21,12.51,8.25Z"/>
    <path class="cls-1" d="m780.94,1062.08c3.45,3.53,3.89,7.45,1.49,11.71-5.23,9.28-24.05,11.03-30.94,2.86-3.89-4.61-3.84-9.36-.06-13.95,6.3-7.63,22.74-7.92,29.5-.62Z"/>
    <path class="cls-1" d="m699.49,1088.62c7.64-6.9,26.91-4.17,31.52,4.05,3.35,5.98.64,10.44-4.74,13.45-7.54,4.21-21.24,1.39-26.77-5.22-3.76-4.5-3.43-8.74-.01-12.28Z"/>
    <path class="cls-1" d="m673.4,1034.7c-4.4-4.8-4.03-11.29.93-15.92,6.15-5.75,17.05-4.43,23.53,3.16,4.12,4.82,5.3,10.17.28,15.24-5.78,5.84-18.34,4.5-24.74-2.48Z"/>
    <path class="cls-1" d="m713.59,1028.9c5.98-5.22,17.49-4.13,23.24,2.21,4.65,5.13,4.51,11.43-.35,15.83-6.28,5.69-19.22,4.56-24.72-2.14-4.06-4.95-3.32-11.41,1.82-15.9Z"/>
    <path class="cls-1" d="m791.95,1042.89c-4.25-4.94-3.41-11.9,2.01-16.64,6.65-5.81,18.16-5.91,23.39-.22,4.37,4.76,3.52,11.89-1.97,16.56-6.73,5.72-18.62,5.87-23.42.3Z"/>
    <path class="cls-1" d="m868.11,991.09c6.8-5.89,16.12-6.24,20.65-.78,4.46,5.37,3.03,12.94-3.55,18.77-6.7,5.94-15.74,6.27-20.59.74-4.51-5.14-3.03-13.09,3.49-18.73Z"/>
    <path class="cls-1" d="m660.24,1004.59c5.61,6.33,5.79,12.68.51,17.11-5.45,4.57-15.94,2.59-22.19-4.18-5.26-5.7-5.22-12.61.1-17.24,5.99-5.22,14.67-3.49,21.58,4.31Z"/>
    <path class="cls-1" d="m752.43,1048.42c-4.22-4.39-3.97-11.81.54-16.07,6.2-5.86,18.5-5.88,24.15-.04,4.56,4.72,4.41,11.41-.36,15.88-5.96,5.58-19.06,5.71-24.33.23Z"/>
    <path class="cls-1" d="m609.01,1078.54c3.38,3.99,7.07,8.23,3.36,13.62-3.59,5.22-8.97,4.12-13.93,2.19-6.48-2.53-12.26-6.26-15.56-12.62-3.73-7.17.54-13.58,8.57-12.82,7.11.68,12.87,4.28,17.57,9.63Z"/>
    <path class="cls-1" d="m852.46,1028.44c-7.27,6.54-17.48,7.37-22.38,1.82-4.43-5.02-3.46-12.15,2.36-17.45,6.86-6.24,17.53-6.71,22.42-.99,4.23,4.95,3.28,11.51-2.4,16.62Z"/>
    <path class="cls-1" d="m895.4,984.31c-4.95-5.39-3.62-14.85,2.88-20.57,7.13-6.27,14.27-6.86,18.85-1.56,4.81,5.56,3.32,13.99-3.61,20.37-6.5,5.98-13.62,6.67-18.12,1.76Z"/>
    <path class="cls-1" d="m864.47,1054.19c-7.02,6.14-17.82,7.22-22.44,2.24-4.2-4.53-2.95-10.72,3.28-16.18,7.5-6.58,17.15-7.49,22.24-2.11,4.42,4.67,3.31,10.46-3.08,16.05Z"/>
    <path class="cls-1" d="m754.16,1002.53c5.42-4.96,14.39-4.81,19.39.31,4.4,4.51,4.37,12.93-.06,17.01-5.09,4.69-15.66,4.39-20.37-.58-4.54-4.79-4.09-12.04,1.04-16.74Z"/>
    <path class="cls-1" d="m747.06,1094.11c7-6.3,21.51-6.18,27.26-.69,3.75,3.58,3.93,7.3.34,11.13-5.57,5.94-20.09,7.03-26.1,1.74-4.62-4.06-5.19-8.57-1.51-12.18Z"/>
    <path class="cls-1" d="m911.49,884.94c5.37-4.92,12.26-4.99,16.76-.16,4.99,5.36,4.04,15.56-1.94,20.77-4.66,4.07-11.67,3.46-16.06-1.4-4.88-5.4-4.32-14.12,1.24-19.21Z"/>
    <path class="cls-1" d="m788.11,997.62c5.67-4.9,15.09-4.92,19.58-.04,4.56,4.96,4.15,12.26-.95,16.84-5.83,5.24-14.5,5.24-19.33,0-4.67-5.08-4.37-12.43.7-16.8Z"/>
    <path class="cls-1" d="m897.47,916.31c5.47-4.88,12.57-4.97,16.83-.21,4.79,5.35,3.93,13.7-1.97,19.1-5.88,5.38-12.54,5.24-17.23-.38-4.24-5.08-3.15-13.57,2.38-18.51Z"/>
    <path class="cls-1" d="m851.29,968.03c6.36-5.45,13.62-5.36,18.17.23,4.27,5.25,3.35,13.22-2.03,17.64-6.05,4.97-13.68,4.64-18.42-.8-4.89-5.61-4.09-11.62,2.28-17.08Z"/>
    <path class="cls-1" d="m839.57,986.1c4.8,5.05,4.61,11.76-.48,16.71-5.46,5.3-14.56,5.58-19.31.59-4.69-4.93-4.06-12.46,1.47-17.47,5.77-5.22,13.26-5.15,18.32.17Z"/>
    <path class="cls-1" d="m875.14,962.72c-4.82-5.21-4.21-13.13,1.4-18.3,5.57-5.12,12.72-5.18,17.56-.14,5.19,5.39,4.56,12.26-1.65,17.92-6.08,5.54-12.5,5.73-17.32.52Z"/>
    <path class="cls-1" d="m919.94,851.08c5.17-4.48,12.75-4.08,16.78.89,4.28,5.28,3.01,15.75-2.44,20.21-4.82,3.94-11.84,3.12-15.97-1.87-4.68-5.64-3.93-14.4,1.64-19.23Z"/>
    <path class="cls-1" d="m939.65,930.89c4.28,4.96,2.49,14.59-3.84,19.83-4.98,4.12-10.33,5.21-15.26.13-4.8-4.95-2.76-15.15,3.78-20.52,5.07-4.17,11.45-3.94,15.33.56Z"/>
    <path class="cls-1" d="m650.21,1101.32c2.67,3.21,5.25,6.17,2.86,10.17-2.02,3.39-5.45,3.74-9.01,3.23-6.24-.88-12.29-2.16-17.02-6.87-3.03-3.02-5.07-6.22-2.76-10.55,2.18-4.08,5.87-5.15,10.12-4.54,6.44.93,11.59,4.34,15.82,8.55Z"/>
    <path class="cls-1" d="m898.14,1033.02c-6.31,5.57-14.61,6.76-18.58,2.68-4.05-4.17-2.3-12.14,3.8-17.26,6.31-5.3,14.5-5.73,18.54-.97,3.74,4.41,2.35,10.16-3.76,15.55Z"/>
    <path class="cls-1" d="m889.33,849.53c5.09-4.81,13.54-4.7,17.74-.34,4.05,4.2,3.98,12.37-.15,16.4-4.54,4.43-13.63,4.08-17.71-1.07-4.11-5.19-3.39-10.53.12-14.99Z"/>
    <path class="cls-1" d="m791,1090.54c7.62-6.21,20.81-6.55,24.62-1.24,3.16,4.41,1.11,7.99-2.51,11.05-6.35,5.36-18.64,6.04-22.74,1.11-3.68-4.43-2.37-8.34.63-10.92Z"/>
    <path class="cls-1" d="m833.96,944.62c4.97-4.46,11.72-3.74,16.53,1.76,4.48,5.12,4.09,11.4-.98,15.83-4.89,4.27-11.88,3.94-16.02-.75-4.54-5.15-4.33-12.54.47-16.84Z"/>
    <path class="cls-1" d="m889.22,904.06c3.71,4.3,2.95,12.43-1.84,15.99-5.69,4.23-11.2,3.22-15.93-1.73-4.55-4.76-4.34-11.75.2-15.97,4.56-4.24,13.15-3.4,17.57,1.71Z"/>
    <path class="cls-1" d="m890.29,821.27c5.2-4.94,13.09-4.98,17.38-.59,4.74,4.86,4.69,12.41-.1,16.66-4.41,3.9-12.95,3.37-16.94-1.34-4.24-5.01-4.28-10.21-.34-14.73Z"/>
    <path class="cls-1" d="m903.4,792.52c4.53,5.01,4.46,11.87-.19,16.1-4.67,4.25-12.7,3.96-17.1-.63-4.49-4.67-3.96-11.41,1.24-15.81,5.34-4.52,11.78-4.39,16.05.34Z"/>
    <path class="cls-1" d="m901.02,877.91c4.07,4.67,3.26,11.69-1.83,15.95-5.05,4.22-11.29,3.61-15.92-1.57-4.74-5.3-4.46-11.51.72-15.73,4.91-4,12.93-3.37,17.03,1.35Z"/>
    <path class="cls-1" d="m855.17,925.46c5.02-4.46,11.93-3.77,16.55,1.66,4.38,5.14,3.8,11.29-1.48,15.76-4.93,4.18-11.65,3.59-15.96-1.41-4.26-4.92-3.88-11.78.88-16.02Z"/>
    <path class="cls-1" d="m921.34,817.7c4.7-4.19,11.45-3.89,15.21.67,4.31,5.23,3.92,13.72-1.01,17.82-5,4.16-10.12,3.56-14.55-.78-4.88-4.78-4.52-13.37.35-17.71Z"/>
    <path class="cls-1" d="m876.08,781.54c-4.29-4.67-3.83-11.64,1.07-16.01,5.19-4.64,12.28-4.32,16.68.95,4.38,5.25,3.98,10.49-.89,15.16-4.99,4.79-12.52,4.63-16.86-.09Z"/>
    <path class="cls-1" d="m940.87,897.46c4.34-2.62,9.13-3.31,13.08,1.66,3.93,4.94,1.99,15-3.6,19.18-5.01,3.74-9.57,2.85-13.25-2.07-3.76-5.01-2.03-14.29,3.77-18.77Z"/>
    <path class="cls-1" d="m690.99,1116.17c1.95,2.36,2.62,5.67-.77,8.89-4.98,4.74-17.71,2.58-23.27-3.87-2.75-3.19-3.73-6.52-.35-9.8,4.48-4.35,18.49-1.97,24.38,4.78Z"/>
    <path class="cls-1" d="m924.69,1009.4c-4.88,3.47-10.09,7.13-15.12,1.45-5.2-5.89-1.29-11.16,3.18-15.48,5.59-5.4,12.65-6.17,15.7-1.65,4.29,6.36.18,11.13-3.76,15.68Z"/>
    <path class="cls-1" d="m861.93,756.35c-4.39-5.15-3.38-10.24,1.04-14.42,4.55-4.32,9.99-4.53,14.41.25,4.25,4.6,4.34,9.83-.29,14.45-4.56,4.55-11.07,4.32-15.15-.28Z"/>
    <path class="cls-1" d="m931.37,789.03c2.91,5.06,4.5,10.81-.5,15.37-4.55,4.16-10.22,3.93-14.27-1.26-3.96-5.07-4.26-10.85.79-15.35,4.48-4,9.43-3.19,13.98,1.24Z"/>
    <path class="cls-1" d="m830.21,1081.5c5.46-5.12,15.93-6.82,19.67-2.88,3.83,4.02,2.14,7.85-1.32,11.17-5.26,5.06-16.02,6.68-19.67,2.81-3.82-4.05-2.25-7.78,1.32-11.1Z"/>
    <path class="cls-1" d="m959.06,885.98c-3.66,3.03-7.78,3.31-11.55-.7-3.75-4-3.17-13.21,1.06-17.19,3.87-3.63,8.22-3.75,12.15-.24,4.27,3.81,3.44,13.3-1.67,18.14Z"/>
    <path class="cls-1" d="m727.32,1123.55c1.75,2.22,1.59,5.34-1.42,8.04-4.41,3.96-17.45,2.45-21.37-2.41-2.56-3.17-2.42-6.2.76-8.94,4.84-4.17,16.89-2.85,22.03,3.31Z"/>
    <path class="cls-1" d="m936.06,970.08c4-3.19,8.47-6.63,12.69-1.55,4.66,5.62,1.12,10.73-3.16,14.99-3.72,3.69-8.52,6.48-12.57,1.57-4.52-5.48-1.21-10.66,3.04-15.01Z"/>
    <path class="cls-1" d="m862.92,1068.54c5.81-5.11,14.72-6.32,17.61-2.48,3.48,4.62.7,8.13-2.93,10.84-4.91,3.66-10.56,7.14-16.18,2.19-4.26-3.76-1.12-7.73,1.5-10.55Z"/>
    <path class="cls-1" d="m908.83,776.61c-3.55-4.76-4.34-9.76.01-13.99,4.16-4.04,9.22-3.41,12.8.9,3.64,4.38,4.08,9.52-.64,13.73-4.14,3.69-8.32,2.78-12.17-.64Z"/>
    <path class="cls-1" d="m952.96,839.55c3.6-2.82,7.2-3.31,10.56.3,3.93,4.22,3.36,12.69-1.09,16.21-3.8,3.01-7.47,2.3-10.56-1.08-3.78-4.16-3.13-11.85,1.08-15.43Z"/>
    <path class="cls-1" d="m845.87,724.13c4.62-4.21,9.18-4.25,13.14-.16,4.11,4.25,3.39,8.78-.93,12.64-4.16,3.72-8.62,4.67-12.73.11-3.95-4.38-3.08-8.8.51-12.6Z"/>
    <path class="cls-1" d="m953.52,944.12c2.97-2.26,6.5-4.05,10.28-.73,3.52,3.1,2.32,11.12-2.26,15.23-3.18,2.85-6.77,4.39-10.54,1.01-3.59-3.22-2.42-10.86,2.53-15.5Z"/>
  </g>
</svg>