<?xml version="1.0" encoding="UTF-8"?>
<svg id="Layer_1" data-name="Layer 1" xmlns="http://www.w3.org/2000/svg" viewBox="0 0 1417.32 1417.32">
  <defs>
    <style>
      .cls-1 {
        fill: #fff;
      }
    </style>
  </defs>
  <g>
    <path class="cls-1" d="m487.03,813.07c15.85-64.78,52.94-116.99,98.05-164.13,41.11-42.97,83.1-85.1,124.84-127.47,76.34-77.51,152.49-155.23,229.27-232.3,65.19-65.43,93.72-145.67,97.36-236.11.59-14.56-2.11-29.28-3.59-43.89-.48-4.73-2.32-9.2-8.23-9.16-6.15.04-6.99,4.73-7.58,9.49-.62,5.03-1.1,10.08-2.05,15.05-12.38,64.78-52.22,112.29-98.72,155.31-24.28,22.46-47.61,45.78-70.23,69.89-66.03,70.41-130.03,142.81-199.83,209.58-30.86,29.51-62.08,58.56-90.22,90.72-54.79,62.63-92.15,132.35-87.93,218.57,0,13.2-.09,26.41.09,39.6.03,1.91,1.28,3.82,2.04,5.7,1.78,4.42,4.48,8.89,9.3,9.12,6.03.29,6.42-5.88,7.42-9.96Z"/>
    <path class="cls-1" d="m524.09,964.05c6.74-46.14,20.22-89.14,54.65-122.81,47.24-46.2,93.62-93.24,138.8-141.45,39.95-42.63,79.5-85.64,119.61-128.12,34.53-36.57,67.08-75.28,105.37-107.95,60.03-51.23,88.91-115.57,88.14-194.26,2.42-15.46-2.98-30.8-3.19-46.53-.06-4.22-1.71-8.31-6.57-9.01-5.68-.82-6.23,3.73-7.17,7.77-11.27,48.71-40.06,87.41-72.8,123.16-57.62,62.93-115.55,125.62-174.88,186.94-66.08,68.3-130.07,138.61-197.84,205.31-22.69,22.33-45.34,45.43-60.84,73.89-26.29,48.27-31.85,99.89-22.84,153.37,4.75,28.2,13.75,55.16,28.49,79.87,2.33,3.91,3.74,11.39,9.83,9.45,5.6-1.78,1.8-8.23,1.39-12.24-2.65-25.82-3.91-51.51-.13-77.41Z"/>
    <path class="cls-1" d="m1033.44,398.32c-.41-5.62-1.44-12.34-8.48-12.47-6.34-.12-6.92,6.42-7.94,11.31-7.18,34.55-22.93,64.85-45.43,91.82-42.02,50.38-90.03,95.14-134.69,143.04-69.98,75.05-149.13,141.09-217.26,217.92-58.92,66.44-87.98,142.2-66.9,232.52,11.05,47.38,37.22,76.28,79.68,83,4.28.68,10.15,2.84,12.41-2.13,2.35-5.19-3.45-7.93-6.85-10.48-36.43-27.4-45.53-63.78-35.8-106.65,10.38-45.73,37.53-81.76,67.9-115.52,41.8-46.46,86.41-90.26,130.61-134.43,60.01-59.97,118.3-121.54,172.25-187.07,39.54-48.03,64.03-102.01,63.99-168.66,1.68-12.13-2.38-27.06-3.49-42.21Z"/>
  </g>
  <g>
    <path class="cls-1" d="m385.13,686.46c-7.9,6.71-16.71,15.29-28.23,7.09-10.74-7.65-8.9-18.86-4.28-29.63,5.53-12.87,12.85-24.35,25.53-31.32,14.35-7.89,26.98-.12,26.44,16.37-.49,15.21-8.48,26.79-19.47,37.49Z"/>
    <path class="cls-1" d="m423.8,570c14.59-13.34,29.42-16.82,37.86-8.89,8.12,7.63,5.29,23.93-6.87,38.39-6.82,8.11-15.1,14.29-25.21,17.79-6.74,2.33-13.21,2-18.57-3.08-5.34-5.07-6.11-11.47-4-18.34,3.14-10.22,8.85-18.76,16.78-25.86Z"/>
    <path class="cls-1" d="m405.24,1189.5c7.8,7.98,13.67,16.99,14.97,28.37,1.83,15.96-9.01,24.93-23.72,18.8-19.13-7.98-29.42-23.72-32.27-43.54-2.23-15.52,10.42-23.67,24.96-17.35,6.75,2.93,11.23,8.55,16.06,13.72Z"/>
    <path class="cls-1" d="m300.87,810.51c10.67-9.36,21.34-6.88,27.06,6.3,6.03,13.9.43,44.23-10.19,55.14-9.08,9.33-21.67,7.12-27.98-4.91-8.08-15.41-2.31-44.75,11.11-56.53Z"/>
    <path class="cls-1" d="m334.61,1146.89c-9.61-11.23-15.12-23.64-15.23-37.9-.07-8.37,2.41-16.24,11.21-19.63,8.14-3.14,14.75.46,20.42,6.19,9.59,9.71,15.63,21.35,17.74,34.81,1.58,10.09,2.34,20.85-8.83,26.01-11.12,5.14-18.68-2.42-25.3-9.49Z"/>
    <path class="cls-1" d="m324.93,1006.16c8.75,10.65,12,24.81,11.64,39.82-.25,10.27-5.07,18.74-15.26,21.78-10.82,3.23-16.71-4.9-21.41-12.63-7.64-12.55-9.86-26.53-8.08-41.06,1.06-8.68,5.43-15.25,14.04-17.89,8.38-2.58,13.13,3.3,19.07,9.98Z"/>
    <path class="cls-1" d="m341.87,775.17c-7.43,6.77-12.81,10.55-20.19,8.22-7.93-2.5-11.05-9.08-11.63-16.33-1.57-19.6,4.56-36.6,20.35-48.86,12.44-9.66,25.81-3.91,27.56,11.99,2.05,18.6-5.28,34.17-16.09,44.97Z"/>
    <path class="cls-1" d="m314.43,908.8c10.87,13.12,11.32,44.39.82,57.75-7.62,9.7-20.95,9.59-27.34-1.44-10.11-17.44-11.44-36.1-1.98-54.32,6.84-13.18,18.82-13.66,28.49-1.99Z"/>
    <path class="cls-1" d="m376.81,1124.82c-7.11-9.95-12.65-21.48-11.99-34.9.36-7.3,2.83-13.97,10.63-17.14,7.61-3.1,14.04-.86,19.77,4.11,10.59,9.19,15.9,21.15,17.21,34.92.91,9.62-.66,18.21-11.19,22.13-10.29,3.84-17.28-1.62-24.42-9.12Z"/>
    <path class="cls-1" d="m347.01,992.35c6.62-5.89,14.56-4.94,22.17.84,12.83,9.75,18.37,37.09,10.62,50.99-6.31,11.3-15.95,13.46-26.01,5.82-15.97-12.13-20.47-44.57-6.77-57.66Z"/>
    <path class="cls-1" d="m507.55,1231.23c1.6,2.64,4.26,6.55,6.44,10.71,4.24,8.1,5.6,16.54-1.36,23.67-6.95,7.11-15.29,5.71-23.67,2.05-12.77-5.58-21.76-14.75-27.21-27.49-3.06-7.16-2.38-13.74,2.8-19.81,5.37-6.3,12.04-6.91,19.33-4.62,8.75,2.75,16.08,7.82,23.67,15.5Z"/>
    <path class="cls-1" d="m339.51,906.61c8.07-7.44,15.73-5.01,22.6,1.51,12.12,11.51,12.27,43.59.49,55.3-6.54,6.51-13.61,8.03-21.44,1.92-15.65-12.2-16.64-45.78-1.64-58.73Z"/>
    <path class="cls-1" d="m346.68,822.59c10.43-9.64,22.29-7.02,28.72,6.35,6.58,13.68,1,38.9-10.76,48.58-9.82,8.09-21.71,5.57-27.13-5.73-6.46-13.46-1.67-39.19,9.16-49.2Z"/>
    <path class="cls-1" d="m611.31,1343.3c-6.81-7.24-9.88-13.33-7.56-21.15,2.4-8.09,8.95-10.59,16.16-12.15,12.41-2.69,35.97,6.89,43.17,17.45,8.24,12.09,2.97,25.74-11.56,28.09-16.11,2.6-29.76-3.75-40.21-12.24Z"/>
    <path class="cls-1" d="m443.95,1159.88c7.64,9.46,12.8,19.01,13.1,30.47.38,14.62-9.13,21.1-22.53,15-12.11-5.52-20.75-15.12-26.94-26.66-5.19-9.67-5.35-19.69,3.63-27.31,9-7.65,17.88-3.24,26.05,2.44,2.7,1.88,4.93,4.44,6.69,6.06Z"/>
    <path class="cls-1" d="m580.29,1286.98c4.86,7.15,10.76,14.45,6.11,23.49-4.94,9.61-14.47,10.13-23.72,8.44-12.59-2.3-23.26-8.64-31.03-18.8-5.09-6.66-7.87-14.45-1.97-22.37,5.36-7.19,12.58-9.74,21.41-7.82,11.6,2.52,20.74,9.16,29.2,17.05Z"/>
    <path class="cls-1" d="m471.69,1267.66c12.34,13.59,15.05,24.61,7.98,32.57-7.43,8.38-19.58,6.59-34.12-5.41-6.99-5.77-12.96-12.47-16.6-21.02-2.91-6.83-2.23-13.07,2.67-18.54,5.14-5.74,11.66-5.79,18.33-3.22,8.58,3.3,15.79,8.6,21.74,15.62Z"/>
    <path class="cls-1" d="m444.77,1063.06c11.62,12.91,15.8,30.44,10.43,39.97-4.01,7.11-10.28,12.17-18.62,9.67-14.67-4.41-21.31-16.43-24.63-30.35-2.4-10.07-.06-19.13,9.59-24.37,10.23-5.55,18.02-.09,23.23,5.08Z"/>
    <path class="cls-1" d="m455.97,1161.76c-.56-.97-3.36-4.86-5.15-9.17-3.99-9.57-3.87-19.16,5.24-25.59,9.6-6.78,18.96-3.76,26.95,3.94,5.48,5.28,10.39,11,13.01,18.4,3.51,9.88,3.11,19.2-6.08,25.44-9.26,6.28-18.12,2.96-25.82-4.01-2.1-1.9-3.83-4.19-8.15-9Z"/>
    <path class="cls-1" d="m507.22,1220.15c-2.58-3.95-5.55-7.7-7.66-11.88-3.53-6.98-2.77-13.95,2.23-19.98,5.12-6.17,12.1-7.32,19.43-5.25,12.57,3.56,21.67,11.53,27.09,23.38,3.42,7.49,3.09,15.1-2.67,21.27-6.16,6.6-13.82,7.39-22.18,3.93-6.32-2.62-11.46-6.6-16.23-11.47Z"/>
    <path class="cls-1" d="m679.28,1280.79c4.88,5.82,6.46,14.78-2.73,23.32-10.58,9.84-34.57,5.49-46.04-8.09-7.7-9.11-7.1-18.93,1.59-26.27,11.32-9.56,32.7-5.7,47.18,11.04Z"/>
    <path class="cls-1" d="m902.36,1309.05c-9.35,8.17-19.63,11.75-30.79,12.08-8.68.26-15.81-3.28-18.96-12.19-3.25-9.18-1-17.55,6.57-22.96,10.34-7.4,22.23-10.78,35.11-7.25,7.21,1.98,13.39,5.61,15.07,13.54,1.57,7.41-3,12.55-7,16.77Z"/>
    <path class="cls-1" d="m704.99,1290.56c12.04-10.97,43.47-5.64,50.76,8.95,4.87,9.75,1.32,17.57-7.61,22.87-11.42,6.78-31.17,5.04-41.92-3.28-9.43-7.29-10-20.55-1.23-28.54Z"/>
    <path class="cls-1" d="m605.75,1244.64c5.48,7.05,9.77,15.54,4.07,25.24-5.65,9.61-14.89,8.58-24.01,6.38-8.53-2.05-15.95-6.5-21.73-12.84-6.35-6.97-10.26-15.31-4.12-24.47,6.03-9.01,14.86-11.5,24.94-8.05,7.67,2.63,14.46,7.02,20.85,13.75Z"/>
    <path class="cls-1" d="m829.12,1297.69c5.74,5.88,6.49,12.41,2.49,19.51-8.72,15.47-40.08,18.38-51.56,4.77-6.48-7.69-6.4-15.61-.09-23.25,10.5-12.72,37.9-13.2,49.17-1.03Z"/>
    <path class="cls-1" d="m693.38,1341.92c12.74-11.5,44.85-6.96,52.54,6.75,5.59,9.97,1.07,17.41-7.9,22.42-12.56,7.02-35.41,2.31-44.61-8.7-6.27-7.5-5.71-14.57-.02-20.47Z"/>
    <path class="cls-1" d="m649.89,1252.05c-7.34-8-6.71-18.82,1.54-26.53,10.26-9.58,28.42-7.39,39.22,5.27,6.86,8.04,8.84,16.94.47,25.4-9.63,9.73-30.56,7.5-41.23-4.14Z"/>
    <path class="cls-1" d="m716.88,1242.39c9.96-8.71,29.16-6.88,38.74,3.68,7.75,8.55,7.52,19.04-.58,26.38-10.46,9.48-32.03,7.61-41.19-3.57-6.77-8.25-5.54-19.01,3.03-26.5Z"/>
    <path class="cls-1" d="m847.47,1265.7c-7.09-8.23-5.69-19.83,3.34-27.73,11.08-9.68,30.27-9.86,38.98-.36,7.28,7.94,5.86,19.82-3.28,27.59-11.21,9.53-31.04,9.78-39.04.49Z"/>
    <path class="cls-1" d="m974.41,1179.37c11.33-9.81,26.87-10.4,34.42-1.3,7.43,8.96,5.05,21.56-5.91,31.28-11.16,9.9-26.24,10.44-34.32,1.24-7.52-8.56-5.05-21.81,5.81-31.22Z"/>
    <path class="cls-1" d="m627.96,1201.88c9.34,10.55,9.66,21.14.85,28.51-9.09,7.61-26.57,4.32-36.98-6.96-8.76-9.5-8.69-21.01.17-28.73,9.99-8.7,24.45-5.81,35.96,7.19Z"/>
    <path class="cls-1" d="m781.61,1274.93c-7.04-7.32-6.62-19.68.9-26.79,10.34-9.77,30.84-9.8,40.24-.06,7.6,7.87,7.35,19.02-.6,26.46-9.94,9.31-31.77,9.52-40.55.39Z"/>
    <path class="cls-1" d="m542.57,1325.12c5.64,6.65,11.78,13.72,5.6,22.7-5.98,8.69-14.96,6.87-23.22,3.65-10.8-4.22-20.43-10.43-25.94-21.04-6.21-11.95.9-22.64,14.28-21.36,11.84,1.13,21.46,7.13,29.28,16.05Z"/>
    <path class="cls-1" d="m948.33,1241.62c-12.11,10.9-29.13,12.28-37.3,3.03-7.38-8.36-5.77-20.25,3.94-29.08,11.43-10.4,29.22-11.18,37.36-1.65,7.05,8.25,5.47,19.18-4,27.7Z"/>
    <path class="cls-1" d="m1019.89,1168.07c-8.24-8.98-6.03-24.75,4.8-34.28,11.89-10.45,23.78-11.43,31.42-2.61,8.02,9.26,5.53,23.32-6.02,33.95-10.83,9.96-22.7,11.12-30.21,2.94Z"/>
    <path class="cls-1" d="m968.34,1284.54c-11.7,10.24-29.7,12.03-37.4,3.73-7-7.55-4.91-17.87,5.46-26.96,12.5-10.97,28.58-12.49,37.07-3.51,7.37,7.79,5.52,17.43-5.13,26.74Z"/>
    <path class="cls-1" d="m784.49,1198.45c9.03-8.26,23.99-8.02,32.32.52,7.34,7.52,7.28,21.55-.1,28.35-8.49,7.82-26.09,7.31-33.94-.97-7.57-7.99-6.82-20.07,1.73-27.89Z"/>
    <path class="cls-1" d="m772.66,1351.08c11.67-10.51,35.84-10.3,45.43-1.14,6.25,5.97,6.55,12.17.57,18.56-9.28,9.9-33.48,11.71-43.49,2.89-7.69-6.77-8.65-14.28-2.51-20.31Z"/>
    <path class="cls-1" d="m1046.7,1002.45c8.95-8.2,20.44-8.31,27.93-.27,8.32,8.93,6.73,25.93-3.24,34.62-7.77,6.78-19.44,5.76-26.76-2.33-8.13-8.99-7.19-23.53,2.07-32.02Z"/>
    <path class="cls-1" d="m841.08,1190.25c9.46-8.16,25.14-8.2,32.63-.07,7.6,8.26,6.92,20.43-1.58,28.06-9.72,8.73-24.17,8.73-32.21,0-7.79-8.46-7.28-20.71,1.16-28Z"/>
    <path class="cls-1" d="m1023.33,1054.75c9.11-8.14,20.95-8.29,28.05-.36,7.98,8.91,6.54,22.84-3.29,31.83-9.81,8.97-20.91,8.73-28.72-.63-7.06-8.46-5.25-22.62,3.96-30.84Z"/>
    <path class="cls-1" d="m946.38,1140.94c10.6-9.09,22.7-8.93,30.28.39,7.11,8.76,5.59,22.03-3.38,29.4-10.09,8.29-22.79,7.73-30.69-1.33-8.15-9.35-6.81-19.37,3.8-28.46Z"/>
    <path class="cls-1" d="m926.84,1171.06c8.01,8.42,7.68,19.6-.8,27.85-9.09,8.84-24.27,9.3-32.18.98-7.82-8.22-6.76-20.77,2.46-29.11,9.61-8.7,22.1-8.58,30.53.28Z"/>
    <path class="cls-1" d="m986.13,1132.09c-8.03-8.68-7.02-21.89,2.34-30.5,9.28-8.53,21.2-8.63,29.27-.23,8.65,8.99,7.59,20.44-2.75,29.86-10.14,9.23-20.83,9.55-28.86.87Z"/>
    <path class="cls-1" d="m1060.79,946.02c8.62-7.47,21.25-6.8,27.96,1.48,7.13,8.8,5.02,26.26-4.07,33.68-8.04,6.56-19.74,5.19-26.62-3.11-7.79-9.4-6.55-24,2.74-32.05Z"/>
    <path class="cls-1" d="m1093.65,1079.05c7.13,8.27,4.15,24.32-6.4,33.05-8.31,6.87-17.22,8.69-25.44.22-8.01-8.25-4.59-25.25,6.3-34.2,8.46-6.95,19.08-6.56,25.55.93Z"/>
    <path class="cls-1" d="m611.25,1363.08c4.45,5.36,8.75,10.28,4.77,16.96-3.37,5.65-9.08,6.23-15.01,5.39-10.4-1.47-20.49-3.6-28.37-11.45-5.06-5.04-8.45-10.37-4.61-17.58,3.63-6.8,9.78-8.58,16.87-7.56,10.74,1.55,19.31,7.23,26.36,14.25Z"/>
    <path class="cls-1" d="m1024.46,1249.26c-10.52,9.28-24.35,11.27-30.96,4.47-6.75-6.95-3.83-20.23,6.33-28.76,10.52-8.84,24.17-9.55,30.9-1.62,6.23,7.35,3.91,16.94-6.27,25.91Z"/>
    <path class="cls-1" d="m1009.78,943.44c8.48-8.02,22.56-7.84,29.57-.56,6.75,7.01,6.63,20.62-.25,27.33-7.56,7.39-22.71,6.81-29.51-1.79-6.84-8.64-5.65-17.55.19-24.98Z"/>
    <path class="cls-1" d="m845.89,1345.12c12.7-10.36,34.68-10.92,41.03-2.07,5.27,7.35,1.85,13.32-4.18,18.42-10.59,8.94-31.07,10.07-37.91,1.86-6.14-7.38-3.95-13.91,1.05-18.21Z"/>
    <path class="cls-1" d="m917.49,1101.93c8.29-7.43,19.53-6.23,27.55,2.93,7.47,8.54,6.82,18.99-1.63,26.38-8.14,7.11-19.81,6.57-26.7-1.24-7.57-8.58-7.22-20.9.78-28.07Z"/>
    <path class="cls-1" d="m1009.6,1034.32c6.19,7.16,4.92,20.72-3.07,26.65-9.48,7.04-18.66,5.36-26.54-2.89-7.58-7.93-7.23-19.59.33-26.62,7.59-7.06,21.92-5.66,29.28,2.86Z"/>
    <path class="cls-1" d="m1011.37,896.34c8.67-8.23,21.82-8.3,28.96-.98,7.9,8.09,7.82,20.69-.17,27.76-7.35,6.51-21.58,5.62-28.23-2.23-7.07-8.35-7.14-17.02-.57-24.56Z"/>
    <path class="cls-1" d="m1033.23,848.42c7.56,8.35,7.43,19.78-.31,26.83-7.78,7.09-21.16,6.6-28.51-1.04-7.48-7.78-6.6-19.01,2.06-26.35,8.9-7.54,19.63-7.31,26.76.56Z"/>
    <path class="cls-1" d="m1029.26,990.74c6.78,7.79,5.44,19.48-3.05,26.58-8.42,7.04-18.81,6.02-26.53-2.61-7.9-8.83-7.43-19.19,1.2-26.22,8.18-6.67,21.55-5.61,28.39,2.24Z"/>
    <path class="cls-1" d="m952.84,1070c8.36-7.44,19.88-6.28,27.59,2.77,7.3,8.57,6.34,18.82-2.46,26.27-8.22,6.96-19.41,5.98-26.6-2.34-7.1-8.21-6.47-19.64,1.47-26.7Z"/>
    <path class="cls-1" d="m1063.12,890.39c7.83-6.98,19.08-6.49,25.36,1.12,7.18,8.71,6.53,22.86-1.69,29.69-8.33,6.93-16.87,5.93-24.25-1.3-8.14-7.97-7.53-22.28.58-29.51Z"/>
    <path class="cls-1" d="m987.69,830.13c-7.15-7.79-6.38-19.4,1.78-26.69,8.65-7.73,20.47-7.2,27.8,1.58,7.31,8.74,6.63,17.49-1.48,25.27-8.32,7.98-20.87,7.71-28.09-.15Z"/>
    <path class="cls-1" d="m1095.68,1023.33c7.23-4.37,15.21-5.52,21.8,2.76,6.55,8.24,3.32,25-6,31.97-8.35,6.24-15.95,4.74-22.08-3.45-6.26-8.36-3.39-23.82,6.29-31.28Z"/>
    <path class="cls-1" d="m679.2,1387.83c3.25,3.93,4.37,9.44-1.28,14.81-8.29,7.9-29.52,4.31-38.78-6.44-4.58-5.31-6.21-10.87-.58-16.33,7.47-7.24,30.81-3.28,40.63,7.96Z"/>
    <path class="cls-1" d="m1068.71,1209.89c-8.13,5.79-16.82,11.88-25.19,2.41-8.67-9.81-2.15-18.6,5.29-25.8,9.31-9,21.09-10.29,26.17-2.75,7.15,10.6.31,18.55-6.27,26.14Z"/>
    <path class="cls-1" d="m964.11,788.15c-7.32-8.58-5.63-17.06,1.73-24.04,7.59-7.2,16.65-7.55,24.01.42,7.08,7.67,7.23,16.39-.49,24.09-7.59,7.58-18.45,7.19-25.25-.47Z"/>
    <path class="cls-1" d="m1079.84,842.61c4.84,8.43,7.49,18.01-.83,25.62-7.59,6.93-17.04,6.54-23.78-2.09-6.6-8.45-7.1-18.09,1.31-25.59,7.47-6.67,15.72-5.31,23.3,2.07Z"/>
    <path class="cls-1" d="m911.25,1330.07c9.1-8.53,26.55-11.36,32.79-4.81,6.38,6.7,3.57,13.08-2.2,18.62-8.77,8.43-26.71,11.14-32.79,4.69-6.36-6.75-3.76-12.96,2.2-18.5Z"/>
    <path class="cls-1" d="m1125.99,1004.19c-6.1,5.05-12.97,5.52-19.24-1.17-6.25-6.67-5.28-22.02,1.77-28.65,6.45-6.06,13.7-6.25,20.25-.4,7.12,6.36,5.73,22.16-2.78,30.23Z"/>
    <path class="cls-1" d="m739.76,1400.15c2.92,3.69,2.65,8.9-2.37,13.4-7.36,6.6-29.08,4.08-35.61-4.01-4.26-5.28-4.04-10.34,1.26-14.9,8.07-6.95,28.16-4.75,36.72,5.52Z"/>
    <path class="cls-1" d="m1087.65,1144.37c6.66-5.32,14.12-11.05,21.15-2.58,7.76,9.36,1.87,17.89-5.27,24.98-6.2,6.15-14.19,10.79-20.95,2.62-7.54-9.13-2.01-17.77,5.07-25.01Z"/>
    <path class="cls-1" d="m965.76,1308.45c9.68-8.52,24.53-10.54,29.35-4.13,5.8,7.7,1.17,13.55-4.89,18.07-8.19,6.1-17.61,11.9-26.96,3.65-7.1-6.26-1.87-12.88,2.5-17.59Z"/>
    <path class="cls-1" d="m1042.28,821.92c-5.92-7.94-7.23-16.26.02-23.31,6.94-6.74,15.36-5.69,21.33,1.51,6.06,7.3,6.79,15.86-1.07,22.88-6.89,6.15-13.87,4.63-20.28-1.07Z"/>
    <path class="cls-1" d="m1115.82,926.81c6-4.71,12-5.51,17.6.5,6.55,7.03,5.59,21.16-1.81,27.02-6.33,5.01-12.46,3.84-17.59-1.81-6.3-6.93-5.21-19.75,1.81-25.71Z"/>
    <path class="cls-1" d="m937.35,734.44c7.69-7.02,15.3-7.09,21.9-.27,6.85,7.08,5.65,14.63-1.55,21.07-6.93,6.2-14.37,7.78-21.21.19-6.58-7.3-5.13-14.66.86-21Z"/>
    <path class="cls-1" d="m1116.75,1101.08c4.96-3.77,10.84-6.75,17.13-1.22,5.87,5.16,3.86,18.53-3.77,25.38-5.29,4.75-11.29,7.32-17.57,1.68-5.99-5.37-4.03-18.09,4.21-25.84Z"/>
  </g>
</svg>