<?xml version="1.0" encoding="UTF-8"?>
<svg id="Layer_1" data-name="Layer 1" xmlns="http://www.w3.org/2000/svg" viewBox="0 0 1417.32 1417.32">
  <defs>
    <style>
      .cls-1 {
        fill: #fff;
      }

      .cls-2 {
        letter-spacing: -.13em;
      }

      .cls-3 {
        letter-spacing: -.03em;
      }

      .cls-4 {
        letter-spacing: 0em;
      }

      .cls-5 {
        letter-spacing: -.03em;
      }

      .cls-6 {
        letter-spacing: 0em;
      }

      .cls-7 {
        letter-spacing: -.01em;
      }

      .cls-8 {
        letter-spacing: 0em;
      }

      .cls-9 {
        letter-spacing: -.01em;
      }

      .cls-10 {
        letter-spacing: -.12em;
      }

      .cls-11 {
        font-family: Outfit-SemiBold, Outfit;
        font-size: 85.75px;
        font-weight: 600;
      }

      .cls-12 {
        letter-spacing: -.02em;
      }

      .cls-13 {
        font-family: Outfit-Regular, Outfit;
        font-size: 73.84px;
      }

      .cls-14 {
        letter-spacing: 0em;
      }
    </style>
  </defs>
  <g>
    <g>
      <path class="cls-1" d="m267.23,736.15c4.17-17.06,13.94-30.8,25.82-43.21,10.82-11.31,21.88-22.4,32.87-33.56,20.1-20.41,40.15-40.87,60.36-61.16,17.16-17.23,24.68-38.35,25.63-62.16.15-3.83-.56-7.71-.95-11.56-.13-1.25-.61-2.42-2.17-2.41-1.62.01-1.84,1.25-2,2.5-.16,1.32-.29,2.65-.54,3.96-3.26,17.06-13.75,29.56-25.99,40.89-6.39,5.91-12.54,12.05-18.49,18.4-17.39,18.54-34.23,37.6-52.61,55.18-8.12,7.77-16.34,15.42-23.75,23.89-14.43,16.49-24.26,34.84-23.15,57.55,0,3.48-.02,6.95.02,10.43,0,.5.34,1.01.54,1.5.47,1.16,1.18,2.34,2.45,2.4,1.59.08,1.69-1.55,1.95-2.62Z"/>
      <path class="cls-1" d="m276.99,775.9c1.77-12.15,5.32-23.47,14.39-32.33,12.44-12.16,24.65-24.55,36.54-37.24,10.52-11.22,20.93-22.55,31.49-33.73,9.09-9.63,17.66-19.82,27.74-28.42,15.8-13.49,23.41-30.43,23.21-51.15.64-4.07-.79-8.11-.84-12.25-.01-1.11-.45-2.19-1.73-2.37-1.5-.22-1.64.98-1.89,2.05-2.97,12.83-10.55,23.01-19.17,32.43-15.17,16.57-30.42,33.07-46.04,49.22-17.4,17.98-34.25,36.49-52.09,54.05-5.97,5.88-11.94,11.96-16.02,19.45-6.92,12.71-8.39,26.3-6.01,40.38,1.25,7.42,3.62,14.52,7.5,21.03.61,1.03.99,3,2.59,2.49,1.48-.47.47-2.17.36-3.22-.7-6.8-1.03-13.56-.03-20.38Z"/>
      <path class="cls-1" d="m411.09,626.95c-.11-1.48-.38-3.25-2.23-3.28-1.67-.03-1.82,1.69-2.09,2.98-1.89,9.1-6.04,17.07-11.96,24.18-11.06,13.27-23.7,25.05-35.46,37.66-18.42,19.76-39.26,37.15-57.2,57.37-15.51,17.49-23.16,37.44-17.61,61.22,2.91,12.47,9.8,20.08,20.98,21.85,1.13.18,2.67.75,3.27-.56.62-1.37-.91-2.09-1.8-2.76-9.59-7.21-11.99-16.79-9.43-28.08,2.73-12.04,9.88-21.53,17.88-30.41,11.01-12.23,22.75-23.76,34.39-35.39,15.8-15.79,31.15-32,45.35-49.25,10.41-12.65,16.86-26.86,16.85-44.4.44-3.19-.63-7.12-.92-11.11Z"/>
    </g>
    <g>
      <path class="cls-1" d="m240.4,702.82c-2.08,1.77-4.4,4.03-7.43,1.87-2.83-2.01-2.34-4.97-1.13-7.8,1.45-3.39,3.38-6.41,6.72-8.25,3.78-2.08,7.1-.03,6.96,4.31-.13,4-2.23,7.05-5.13,9.87Z"/>
      <path class="cls-1" d="m250.58,672.15c3.84-3.51,7.75-4.43,9.97-2.34,2.14,2.01,1.39,6.3-1.81,10.11-1.79,2.13-3.98,3.76-6.64,4.68-1.77.61-3.48.53-4.89-.81-1.41-1.34-1.61-3.02-1.05-4.83.83-2.69,2.33-4.94,4.42-6.81Z"/>
      <path class="cls-1" d="m245.7,835.26c2.05,2.1,3.6,4.47,3.94,7.47.48,4.2-2.37,6.56-6.25,4.95-5.04-2.1-7.75-6.24-8.5-11.46-.59-4.09,2.74-6.23,6.57-4.57,1.78.77,2.96,2.25,4.23,3.61Z"/>
      <path class="cls-1" d="m218.22,735.48c2.81-2.47,5.62-1.81,7.12,1.66,1.59,3.66.11,11.65-2.68,14.52-2.39,2.46-5.71,1.87-7.37-1.29-2.13-4.06-.61-11.78,2.92-14.88Z"/>
      <path class="cls-1" d="m227.1,824.04c-2.53-2.96-3.98-6.22-4.01-9.98-.02-2.2.63-4.28,2.95-5.17,2.14-.83,3.88.12,5.38,1.63,2.52,2.56,4.11,5.62,4.67,9.16.42,2.66.62,5.49-2.32,6.85-2.93,1.35-4.92-.64-6.66-2.5Z"/>
      <path class="cls-1" d="m224.55,786.99c2.3,2.8,3.16,6.53,3.06,10.48-.06,2.7-1.33,4.93-4.02,5.74-2.85.85-4.4-1.29-5.64-3.32-2.01-3.3-2.6-6.98-2.13-10.81.28-2.29,1.43-4.01,3.7-4.71,2.21-.68,3.46.87,5.02,2.63Z"/>
      <path class="cls-1" d="m229.01,726.17c-1.96,1.78-3.37,2.78-5.31,2.16-2.09-.66-2.91-2.39-3.06-4.3-.41-5.16,1.2-9.64,5.36-12.86,3.28-2.54,6.79-1.03,7.26,3.16.54,4.9-1.39,9-4.24,11.84Z"/>
      <path class="cls-1" d="m221.79,761.35c2.86,3.45,2.98,11.69.22,15.2-2.01,2.55-5.52,2.52-7.2-.38-2.66-4.59-3.01-9.5-.52-14.3,1.8-3.47,4.96-3.6,7.5-.52Z"/>
      <path class="cls-1" d="m238.21,818.23c-1.87-2.62-3.33-5.65-3.16-9.19.09-1.92.75-3.68,2.8-4.51,2-.81,3.7-.23,5.2,1.08,2.79,2.42,4.19,5.57,4.53,9.19.24,2.53-.17,4.79-2.95,5.83-2.71,1.01-4.55-.43-6.43-2.4Z"/>
      <path class="cls-1" d="m230.37,783.35c1.74-1.55,3.83-1.3,5.84.22,3.38,2.57,4.84,9.77,2.8,13.43-1.66,2.98-4.2,3.54-6.85,1.53-4.21-3.19-5.39-11.74-1.78-15.18Z"/>
      <path class="cls-1" d="m272.63,846.25c.42.7,1.12,1.72,1.7,2.82,1.12,2.13,1.47,4.36-.36,6.23-1.83,1.87-4.02,1.5-6.23.54-3.36-1.47-5.73-3.88-7.16-7.24-.81-1.88-.63-3.62.74-5.22,1.41-1.66,3.17-1.82,5.09-1.22,2.3.72,4.23,2.06,6.23,4.08Z"/>
      <path class="cls-1" d="m228.39,760.78c2.12-1.96,4.14-1.32,5.95.4,3.19,3.03,3.23,11.48.13,14.56-1.72,1.71-3.58,2.11-5.65.5-4.12-3.21-4.38-12.05-.43-15.46Z"/>
      <path class="cls-1" d="m230.28,738.66c2.75-2.54,5.87-1.85,7.56,1.67,1.73,3.6.26,10.24-2.83,12.79-2.58,2.13-5.72,1.47-7.14-1.51-1.7-3.55-.44-10.32,2.41-12.95Z"/>
      <path class="cls-1" d="m299.95,875.75c-1.79-1.9-2.6-3.51-1.99-5.57.63-2.13,2.36-2.79,4.25-3.2,3.27-.71,9.47,1.81,11.36,4.6,2.17,3.18.78,6.78-3.04,7.4-4.24.69-7.83-.99-10.59-3.22Z"/>
      <path class="cls-1" d="m255.89,827.46c2.01,2.49,3.37,5,3.45,8.02.1,3.85-2.4,5.56-5.93,3.95-3.19-1.45-5.46-3.98-7.09-7.02-1.37-2.55-1.41-5.18.95-7.19,2.37-2.01,4.71-.85,6.86.64.71.5,1.3,1.17,1.76,1.59Z"/>
      <path class="cls-1" d="m291.78,860.92c1.28,1.88,2.83,3.81,1.61,6.18-1.3,2.53-3.81,2.67-6.25,2.22-3.31-.6-6.12-2.27-8.17-4.95-1.34-1.75-2.07-3.81-.52-5.89,1.41-1.89,3.31-2.56,5.64-2.06,3.05.66,5.46,2.41,7.69,4.49Z"/>
      <path class="cls-1" d="m263.19,855.84c3.25,3.58,3.96,6.48,2.1,8.58-1.96,2.21-5.15,1.74-8.98-1.42-1.84-1.52-3.41-3.28-4.37-5.53-.77-1.8-.59-3.44.7-4.88,1.35-1.51,3.07-1.52,4.83-.85,2.26.87,4.16,2.26,5.72,4.11Z"/>
      <path class="cls-1" d="m256.1,801.97c3.06,3.4,4.16,8.01,2.75,10.52-1.06,1.87-2.71,3.2-4.9,2.55-3.86-1.16-5.61-4.33-6.48-7.99-.63-2.65-.02-5.04,2.53-6.42,2.69-1.46,4.74-.02,6.12,1.34Z"/>
      <path class="cls-1" d="m259.05,827.96c-.15-.25-.88-1.28-1.36-2.42-1.05-2.52-1.02-5.04,1.38-6.74,2.53-1.78,4.99-.99,7.1,1.04,1.44,1.39,2.73,2.9,3.43,4.84.92,2.6.82,5.06-1.6,6.7-2.44,1.65-4.77.78-6.8-1.06-.55-.5-1.01-1.1-2.14-2.37Z"/>
      <path class="cls-1" d="m272.55,843.33c-.68-1.04-1.46-2.03-2.02-3.13-.93-1.84-.73-3.67.59-5.26,1.35-1.63,3.19-1.93,5.12-1.38,3.31.94,5.7,3.03,7.13,6.16.9,1.97.81,3.97-.7,5.6-1.62,1.74-3.64,1.95-5.84,1.03-1.66-.69-3.02-1.74-4.27-3.02Z"/>
      <path class="cls-1" d="m317.85,859.29c1.28,1.53,1.7,3.89-.72,6.14-2.79,2.59-9.1,1.44-12.12-2.13-2.03-2.4-1.87-4.98.42-6.92,2.98-2.52,8.61-1.5,12.42,2.91Z"/>
      <path class="cls-1" d="m376.58,866.73c-2.46,2.15-5.17,3.09-8.11,3.18-2.29.07-4.16-.86-4.99-3.21-.85-2.42-.26-4.62,1.73-6.05,2.72-1.95,5.85-2.84,9.24-1.91,1.9.52,3.53,1.48,3.97,3.56.41,1.95-.79,3.3-1.84,4.42Z"/>
      <path class="cls-1" d="m324.62,861.87c3.17-2.89,11.44-1.49,13.36,2.36,1.28,2.57.35,4.63-2,6.02-3.01,1.78-8.21,1.33-11.04-.86-2.48-1.92-2.63-5.41-.32-7.51Z"/>
      <path class="cls-1" d="m298.49,849.78c1.44,1.86,2.57,4.09,1.07,6.64-1.49,2.53-3.92,2.26-6.32,1.68-2.24-.54-4.2-1.71-5.72-3.38-1.67-1.84-2.7-4.03-1.09-6.44,1.59-2.37,3.91-3.03,6.57-2.12,2.02.69,3.81,1.85,5.49,3.62Z"/>
      <path class="cls-1" d="m357.3,863.74c1.51,1.55,1.71,3.27.66,5.14-2.3,4.07-10.55,4.84-13.58,1.26-1.71-2.02-1.69-4.11-.02-6.12,2.77-3.35,9.98-3.48,12.94-.27Z"/>
      <path class="cls-1" d="m321.56,875.39c3.35-3.03,11.81-1.83,13.83,1.78,1.47,2.63.28,4.58-2.08,5.9-3.31,1.85-9.32.61-11.75-2.29-1.65-1.98-1.5-3.84,0-5.39Z"/>
      <path class="cls-1" d="m310.11,851.73c-1.93-2.11-1.77-4.95.41-6.98,2.7-2.52,7.48-1.94,10.33,1.39,1.81,2.12,2.33,4.46.12,6.69-2.54,2.56-8.05,1.97-10.86-1.09Z"/>
      <path class="cls-1" d="m327.75,849.18c2.62-2.29,7.68-1.81,10.2.97,2.04,2.25,1.98,5.01-.15,6.95-2.75,2.49-8.43,2-10.85-.94-1.78-2.17-1.46-5.01.8-6.98Z"/>
      <path class="cls-1" d="m362.13,855.32c-1.87-2.17-1.5-5.22.88-7.3,2.92-2.55,7.97-2.6,10.26-.1,1.92,2.09,1.54,5.22-.86,7.27-2.95,2.51-8.17,2.58-10.28.13Z"/>
      <path class="cls-1" d="m395.55,832.59c2.98-2.58,7.08-2.74,9.06-.34,1.96,2.36,1.33,5.68-1.56,8.24-2.94,2.61-6.91,2.75-9.04.33-1.98-2.25-1.33-5.74,1.53-8.22Z"/>
      <path class="cls-1" d="m304.34,838.52c2.46,2.78,2.54,5.57.22,7.51-2.39,2-7,1.14-9.74-1.83-2.31-2.5-2.29-5.53.04-7.56,2.63-2.29,6.44-1.53,9.47,1.89Z"/>
      <path class="cls-1" d="m344.79,857.75c-1.85-1.93-1.74-5.18.24-7.05,2.72-2.57,8.12-2.58,10.6-.02,2,2.07,1.93,5.01-.16,6.97-2.62,2.45-8.37,2.51-10.68.1Z"/>
      <path class="cls-1" d="m281.85,870.97c1.48,1.75,3.1,3.61,1.47,5.98-1.58,2.29-3.94,1.81-6.11.96-2.84-1.11-5.38-2.75-6.83-5.54-1.63-3.15.24-5.96,3.76-5.62,3.12.3,5.65,1.88,7.71,4.23Z"/>
      <path class="cls-1" d="m388.68,848.98c-3.19,2.87-7.67,3.23-9.82.8-1.94-2.2-1.52-5.33,1.04-7.66,3.01-2.74,7.69-2.94,9.84-.43,1.86,2.17,1.44,5.05-1.05,7.29Z"/>
      <path class="cls-1" d="m407.52,829.62c-2.17-2.36-1.59-6.52,1.26-9.03,3.13-2.75,6.26-3.01,8.27-.69,2.11,2.44,1.46,6.14-1.59,8.94-2.85,2.62-5.98,2.93-7.95.77Z"/>
      <path class="cls-1" d="m393.95,860.28c-3.08,2.69-7.82,3.17-9.85.98-1.84-1.99-1.29-4.7,1.44-7.1,3.29-2.89,7.53-3.29,9.76-.93,1.94,2.05,1.45,4.59-1.35,7.04Z"/>
      <path class="cls-1" d="m345.55,837.61c2.38-2.17,6.32-2.11,8.51.14,1.93,1.98,1.92,5.67-.03,7.46-2.23,2.06-6.87,1.92-8.94-.26-1.99-2.1-1.8-5.29.46-7.34Z"/>
      <path class="cls-1" d="m342.43,877.8c3.07-2.77,9.44-2.71,11.96-.3,1.65,1.57,1.73,3.2.15,4.89-2.44,2.61-8.81,3.08-11.45.76-2.03-1.78-2.28-3.76-.66-5.35Z"/>
      <path class="cls-1" d="m414.58,786.01c2.36-2.16,5.38-2.19,7.35-.07,2.19,2.35,1.77,6.83-.85,9.12-2.05,1.78-5.12,1.52-7.05-.61-2.14-2.37-1.89-6.19.54-8.43Z"/>
      <path class="cls-1" d="m360.45,835.46c2.49-2.15,6.62-2.16,8.59-.02,2,2.17,1.82,5.38-.42,7.39-2.56,2.3-6.36,2.3-8.48,0-2.05-2.23-1.92-5.45.31-7.37Z"/>
      <path class="cls-1" d="m408.43,799.78c2.4-2.14,5.51-2.18,7.38-.09,2.1,2.35,1.72,6.01-.87,8.38-2.58,2.36-5.5,2.3-7.56-.17-1.86-2.23-1.38-5.96,1.04-8.12Z"/>
      <path class="cls-1" d="m388.17,822.47c2.79-2.39,5.98-2.35,7.97.1,1.87,2.31,1.47,5.8-.89,7.74-2.66,2.18-6,2.04-8.08-.35-2.15-2.46-1.79-5.1,1-7.49Z"/>
      <path class="cls-1" d="m383.02,830.4c2.11,2.22,2.02,5.16-.21,7.33-2.39,2.33-6.39,2.45-8.47.26-2.06-2.16-1.78-5.47.65-7.67,2.53-2.29,5.82-2.26,8.04.07Z"/>
      <path class="cls-1" d="m398.63,820.14c-2.11-2.28-1.85-5.76.62-8.03,2.44-2.25,5.58-2.27,7.71-.06,2.28,2.37,2,5.38-.72,7.86-2.67,2.43-5.48,2.52-7.6.23Z"/>
      <path class="cls-1" d="m418.29,771.15c2.27-1.97,5.59-1.79,7.36.39,1.88,2.32,1.32,6.91-1.07,8.87-2.12,1.73-5.2,1.37-7.01-.82-2.05-2.47-1.72-6.32.72-8.44Z"/>
      <path class="cls-1" d="m426.94,806.18c1.88,2.18,1.09,6.4-1.69,8.7-2.19,1.81-4.53,2.29-6.7.06-2.11-2.17-1.21-6.65,1.66-9.01,2.23-1.83,5.02-1.73,6.73.25Z"/>
      <path class="cls-1" d="m299.94,880.96c1.17,1.41,2.3,2.71,1.26,4.46-.89,1.49-2.39,1.64-3.95,1.42-2.74-.39-5.39-.95-7.47-3.01-1.33-1.33-2.23-2.73-1.21-4.63.96-1.79,2.58-2.26,4.44-1.99,2.83.41,5.08,1.9,6.94,3.75Z"/>
      <path class="cls-1" d="m408.73,850.99c-2.77,2.44-6.41,2.97-8.15,1.18-1.78-1.83-1.01-5.33,1.67-7.57,2.77-2.33,6.36-2.52,8.13-.43,1.64,1.93,1.03,4.46-1.65,6.82Z"/>
      <path class="cls-1" d="m404.86,770.47c2.23-2.11,5.94-2.06,7.79-.15,1.78,1.84,1.74,5.43-.07,7.2-1.99,1.95-5.98,1.79-7.77-.47-1.8-2.28-1.49-4.62.05-6.58Z"/>
      <path class="cls-1" d="m361.71,876.23c3.34-2.73,9.13-2.88,10.8-.54,1.39,1.93.49,3.51-1.1,4.85-2.79,2.35-8.18,2.65-9.98.49-1.62-1.94-1.04-3.66.28-4.79Z"/>
      <path class="cls-1" d="m380.56,812.2c2.18-1.96,5.14-1.64,7.25.77,1.97,2.25,1.8,5-.43,6.94-2.14,1.87-5.22,1.73-7.03-.33-1.99-2.26-1.9-5.5.21-7.39Z"/>
      <path class="cls-1" d="m404.81,794.4c1.63,1.89,1.3,5.45-.81,7.02-2.5,1.85-4.91,1.41-6.99-.76-2-2.09-1.9-5.16.09-7.01,2-1.86,5.77-1.49,7.71.75Z"/>
      <path class="cls-1" d="m405.28,758.08c2.28-2.17,5.74-2.18,7.62-.26,2.08,2.13,2.06,5.45-.04,7.31-1.94,1.71-5.68,1.48-7.43-.59-1.86-2.2-1.88-4.48-.15-6.47Z"/>
      <path class="cls-1" d="m411.04,745.46c1.99,2.2,1.95,5.21-.08,7.06-2.05,1.87-5.57,1.74-7.51-.27-1.97-2.05-1.74-5.01.54-6.94,2.34-1.98,5.17-1.93,7.04.15Z"/>
      <path class="cls-1" d="m409.99,782.93c1.78,2.05,1.43,5.13-.8,7-2.22,1.85-4.95,1.58-6.99-.69-2.08-2.33-1.96-5.05.31-6.9,2.15-1.76,5.67-1.48,7.47.59Z"/>
      <path class="cls-1" d="m389.87,803.8c2.2-1.96,5.23-1.65,7.26.73,1.92,2.26,1.67,4.96-.65,6.92-2.17,1.83-5.11,1.57-7-.62-1.87-2.16-1.7-5.17.39-7.03Z"/>
      <path class="cls-1" d="m418.91,756.51c2.06-1.84,5.02-1.71,6.68.29,1.89,2.29,1.72,6.02-.44,7.82-2.19,1.82-4.44,1.56-6.39-.34-2.14-2.1-1.98-5.87.15-7.77Z"/>
      <path class="cls-1" d="m399.05,740.64c-1.88-2.05-1.68-5.11.47-7.03,2.28-2.03,5.39-1.89,7.32.41,1.92,2.3,1.74,4.6-.39,6.65-2.19,2.1-5.49,2.03-7.4-.04Z"/>
      <path class="cls-1" d="m427.48,791.51c1.9-1.15,4-1.45,5.74.73,1.73,2.17.87,6.58-1.58,8.42-2.2,1.64-4.2,1.25-5.81-.91-1.65-2.2-.89-6.27,1.66-8.24Z"/>
      <path class="cls-1" d="m317.83,887.48c.86,1.03,1.15,2.49-.34,3.9-2.18,2.08-7.77,1.13-10.21-1.7-1.2-1.4-1.64-2.86-.15-4.3,1.97-1.91,8.11-.86,10.7,2.1Z"/>
      <path class="cls-1" d="m420.38,840.63c-2.14,1.52-4.43,3.13-6.63.64-2.28-2.58-.57-4.9,1.39-6.79,2.45-2.37,5.55-2.71,6.89-.72,1.88,2.79.08,4.88-1.65,6.88Z"/>
      <path class="cls-1" d="m392.84,729.59c-1.93-2.26-1.48-4.49.46-6.33,2-1.89,4.38-1.99,6.32.11,1.86,2.02,1.9,4.31-.13,6.34-2,1.99-4.86,1.89-6.65-.12Z"/>
      <path class="cls-1" d="m423.31,743.93c1.28,2.22,1.97,4.74-.22,6.74-2,1.83-4.49,1.72-6.26-.55-1.74-2.22-1.87-4.76.34-6.74,1.97-1.76,4.14-1.4,6.13.54Z"/>
      <path class="cls-1" d="m378.92,872.27c2.4-2.25,6.99-2.99,8.63-1.27,1.68,1.76.94,3.44-.58,4.9-2.31,2.22-7.03,2.93-8.63,1.23-1.68-1.78-.99-3.41.58-4.87Z"/>
      <path class="cls-1" d="m435.46,786.47c-1.61,1.33-3.41,1.45-5.07-.31-1.65-1.76-1.39-5.8.47-7.54,1.7-1.59,3.61-1.65,5.33-.11,1.87,1.67,1.51,5.83-.73,7.96Z"/>
      <path class="cls-1" d="m333.77,890.72c.77.97.7,2.34-.62,3.53-1.94,1.74-7.66,1.07-9.38-1.06-1.12-1.39-1.06-2.72.33-3.92,2.12-1.83,7.41-1.25,9.67,1.45Z"/>
      <path class="cls-1" d="m425.36,823.38c1.75-1.4,3.72-2.91,5.57-.68,2.04,2.46.49,4.71-1.39,6.58-1.63,1.62-3.74,2.84-5.51.69-1.99-2.4-.53-4.68,1.33-6.59Z"/>
      <path class="cls-1" d="m393.27,866.58c2.55-2.24,6.46-2.77,7.73-1.09,1.53,2.03.31,3.57-1.29,4.76-2.16,1.61-4.64,3.13-7.1.96-1.87-1.65-.49-3.39.66-4.63Z"/>
      <path class="cls-1" d="m413.42,738.48c-1.56-2.09-1.9-4.28,0-6.14,1.83-1.77,4.04-1.5,5.62.4,1.6,1.92,1.79,4.18-.28,6.02-1.81,1.62-3.65,1.22-5.34-.28Z"/>
      <path class="cls-1" d="m432.78,766.1c1.58-1.24,3.16-1.45,4.63.13,1.72,1.85,1.47,5.57-.48,7.11-1.67,1.32-3.28,1.01-4.63-.48-1.66-1.82-1.37-5.2.48-6.77Z"/>
      <path class="cls-1" d="m385.79,715.45c2.03-1.85,4.03-1.87,5.77-.07,1.8,1.86,1.49,3.85-.41,5.55-1.82,1.63-3.78,2.05-5.58.05-1.73-1.92-1.35-3.86.23-5.53Z"/>
      <path class="cls-1" d="m433.03,811.98c1.3-.99,2.85-1.78,4.51-.32,1.54,1.36,1.02,4.88-.99,6.68-1.39,1.25-2.97,1.93-4.63.44-1.58-1.41-1.06-4.76,1.11-6.8Z"/>
    </g>
  </g>
  <text class="cls-1" transform="translate(465.41 696.78)"><tspan class="cls-11"><tspan class="cls-10" x="0" y="0">T</tspan><tspan x="43.65" y="0">an</tspan><tspan class="cls-4" x="142.25" y="0">z</tspan><tspan class="cls-8" x="181.44" y="0">ania</tspan><tspan class="cls-3" x="351.74" y="0"> </tspan><tspan class="cls-5" x="366.05" y="0">A</tspan><tspan x="425.13" y="0">d</tspan><tspan class="cls-9" x="475.55" y="0">v</tspan><tspan x="519.2" y="0">e</tspan><tspan class="cls-14" x="565.59" y="0">n</tspan><tspan class="cls-8" x="613.26" y="0">tist</tspan></tspan><tspan class="cls-13"><tspan x=".1" y="88.61">Institu</tspan><tspan class="cls-7" x="200.12" y="88.61">t</tspan><tspan x="226.19" y="88.61">e </tspan><tspan class="cls-7" x="281.12" y="88.61">o</tspan><tspan class="cls-6" x="321.81" y="88.61">f</tspan><tspan class="cls-12" x="351.27" y="88.61"> </tspan><tspan class="cls-2" x="365.45" y="88.61">T</tspan><tspan x="401.92" y="88.61">echnology</tspan></tspan></text>
</svg>